<?xml version="1.0" encoding="utf-8"?>
<!-- Generator: Adobe Illustrator 22.0.0, SVG Export Plug-In . SVG Version: 6.00 Build 0)  -->
<svg version="1.1" id="Layer_1" xmlns="http://www.w3.org/2000/svg" xmlns:xlink="http://www.w3.org/1999/xlink" x="0px" y="0px"
	 viewBox="0 0 346.3 346.3" style="enable-background:new 0 0 346.3 346.3;" xml:space="preserve">
<style type="text/css">
	.st0{opacity:0.44;fill:url(#SVGID_1_);}
	.st1{fill:#3A4D57;}
	.st2{fill:#E9E5D9;}
	.st3{fill:#16D8D8;}
	.st4{fill:#17C6C1;}
	.st5{fill:#BAB4A4;}
	.st6{fill:#1857BD;}
	.st7{fill:#F49656;}
	.st8{fill:#3B78D1;}
	.st9{fill-rule:evenodd;clip-rule:evenodd;fill:#3EBFB4;}
	.st10{fill-rule:evenodd;clip-rule:evenodd;fill:#113A52;}
	.st11{fill-rule:evenodd;clip-rule:evenodd;fill:#FECA7A;}
	.st12{fill:#F8A971;}
	.st13{fill:#C97D49;}
	.st14{opacity:0.15;fill:#16D8D8;}
	.st15{fill:#CE8451;}
	.st16{opacity:0.58;fill-rule:evenodd;clip-rule:evenodd;fill:#3EBFB4;}
	.st17{opacity:0.58;fill-rule:evenodd;clip-rule:evenodd;fill:#2C9B8E;}
	.st18{fill-rule:evenodd;clip-rule:evenodd;fill:#DDAC6C;}
	.st19{fill-rule:evenodd;clip-rule:evenodd;fill:#0E2F3F;}
	.st20{fill:#FECA7A;}
	.st21{fill:#E5AE65;}
	.st22{fill:#042F48;}
	.st23{fill:#F9F8F7;}
	.st24{fill:#113A52;}
	.st25{fill:#416175;}
	.st26{fill:#EEE2D2;}
	.st27{fill:#FC6460;}
	.st28{fill:#D0A943;}
	.st29{fill:#C49414;}
	.st30{fill:#3B4D57;}
	.st31{fill:#EFD7B8;}
	.st32{fill:#9CD9EF;}
	.st33{fill:none;}
	.st34{fill:#EEEEEE;}
	.st35{fill:#91C3CE;}
	.st36{fill:#FF7D6C;}
	.st37{fill:#DD6C64;}
	.st38{fill:#F9A49D;}
</style>
<g>
	
		<radialGradient id="SVGID_1_" cx="-475.7659" cy="130.9946" r="37.7011" gradientTransform="matrix(2.5877 0 0 0.2796 1413.3356 253.3859)" gradientUnits="userSpaceOnUse">
		<stop  offset="0" style="stop-color:#000000"/>
		<stop  offset="3.921824e-02" style="stop-color:#111111;stop-opacity:0.9544"/>
		<stop  offset="0.2174" style="stop-color:#585858;stop-opacity:0.7471"/>
		<stop  offset="0.3854" style="stop-color:#939393;stop-opacity:0.5516"/>
		<stop  offset="0.5382" style="stop-color:#C2C2C2;stop-opacity:0.3738"/>
		<stop  offset="0.6731" style="stop-color:#E3E3E3;stop-opacity:0.2169"/>
		<stop  offset="0.7847" style="stop-color:#F8F8F8;stop-opacity:8.693588e-02"/>
		<stop  offset="0.8595" style="stop-color:#FFFFFF;stop-opacity:0"/>
	</radialGradient>
	<ellipse class="st0" cx="182.2" cy="290" rx="97.6" ry="10.5"/>
	<g>
		<path class="st1" d="M307.9,103.1v146.7c0,4.8-3.9,8.8-8.8,8.8H62.8c-4.8,0-8.8-3.9-8.8-8.8V103.1c0-4.9,3.9-8.8,8.8-8.8h236.3
			C304,94.3,307.9,98.3,307.9,103.1z"/>
		<path class="st2" d="M307.9,242.4v7.4c0,4.8-3.9,8.8-8.8,8.8H62.8c-4.8,0-8.8-3.9-8.8-8.8v-7.4H307.9z"/>
		<rect x="63.4" y="104.1" class="st3" width="235.1" height="128.4"/>
		<rect x="70.3" y="104.1" class="st4" width="221.4" height="121.2"/>
		<path class="st2" d="M225.6,285.9h-89.2c-1.5,0-2.7,1.2-2.7,2.7l0,0c0,1.5,1.2,2.7,2.7,2.7h89.2c1.5,0,2.7-1.2,2.7-2.7l0,0
			C228.3,287.1,227.1,285.9,225.6,285.9z"/>
		<path class="st5" d="M201.1,258.6h-40.2c0,12.1-9.5,27.2-24.5,27.2h89.2C210.6,285.9,201.1,270.7,201.1,258.6z"/>
	</g>
	<g>
		<rect x="75.6" y="77.5" class="st6" width="210.8" height="144.2"/>
		<rect x="75.6" y="77.5" class="st7" width="210.8" height="19.3"/>
		<rect x="87.2" y="110" class="st8" width="75.3" height="75.3"/>
		<g>
			<g>
				<path class="st9" d="M126.4,146.1c-0.1-2.3-0.8-4.5-1.9-6.5l1.9-1c-0.9-1.7-2.2-3.2-3.6-4.5l-1.4,1.6c-1.7-1.5-3.6-2.6-5.9-3.3
					l0.6-2.1l0,0c-1.6-0.4-3.2-0.7-4.7-0.7c-0.3,0-0.7,0-1,0l0.1,2.1c-2.3,0.1-4.5,0.8-6.5,1.9l-1-1.9c-1.7,0.9-3.2,2.2-4.5,3.6
					l1.6,1.4c-1.5,1.7-2.6,3.6-3.3,5.9l-2.1-0.6l0,0c-0.4,1.6-0.7,3.2-0.7,4.7c0,0.3,0,0.7,0,1l2.1-0.1c0.1,2.3,0.8,4.5,1.9,6.5
					l-1.9,1c0.9,1.7,2.2,3.2,3.6,4.5l1.4-1.6c1.7,1.5,3.6,2.6,5.9,3.3l-0.6,2.1l0.1,0c1.6,0.4,3.2,0.7,4.7,0.7c0.3,0,0.7,0,1,0
					l-0.1-2.1c2.3-0.1,4.5-0.8,6.5-1.9l1,1.9c1.7-0.9,3.2-2.2,4.5-3.6l-1.6-1.4c1.5-1.7,2.6-3.6,3.2-5.9l2.1,0.6l0,0
					c0.4-1.6,0.7-3.2,0.7-4.7c0-0.3,0-0.7,0-1L126.4,146.1z M107.4,160.3L107.4,160.3l0.1-0.4L107.4,160.3z M120.9,149.8
					c-1.3,4.4-5.3,7.3-9.7,7.3c-0.9,0-1.8-0.1-2.7-0.4c-4.4-1.3-7.3-5.3-7.3-9.7c0-0.9,0.1-1.8,0.4-2.7c1.3-4.4,5.3-7.3,9.7-7.3
					c0.9,0,1.8,0.1,2.7,0.4c4.4,1.3,7.3,5.3,7.3,9.7C121.3,147.9,121.2,148.8,120.9,149.8z"/>
				<polygon class="st10" points="153.7,132.2 153.7,132.2 153.7,132.2 				"/>
				<path class="st11" d="M155,135.8l-1.4,0.3c-0.2-1.1-0.6-2.2-1.2-3.2l1.3-0.7c-0.9-1.7-2.2-3.1-3.8-4.2l-0.8,1.2
					c-0.9-0.6-1.9-1.1-3-1.4l0.4-1.4l-0.1,0c-1.1-0.3-2.2-0.5-3.3-0.5c-0.8,0-1.5,0.1-2.3,0.2l0.3,1.4c-1.1,0.2-2.2,0.6-3.2,1.1
					l-0.7-1.3c-1.7,0.9-3.1,2.2-4.2,3.8l1.2,0.8c-0.6,0.9-1.1,1.9-1.4,3l-1.4-0.4l0,0.1c-0.3,1.1-0.5,2.2-0.5,3.3
					c0,0.8,0.1,1.5,0.2,2.3l1.4-0.3c0.2,1.1,0.6,2.2,1.1,3.2l-1.3,0.7h0c0.9,1.7,2.2,3.1,3.8,4.2l0.8-1.2c0.9,0.6,1.9,1.1,3,1.4
					l-0.4,1.4h0l0.1,0c1.1,0.3,2.2,0.5,3.3,0.5c0.8,0,1.6-0.1,2.4-0.2l-0.3-1.4c1.1-0.2,2.2-0.6,3.2-1.2l0.7,1.3
					c1.7-0.9,3.1-2.2,4.2-3.8l-1.2-0.8c0.6-0.9,1.1-1.9,1.4-3l1.4,0.4l0,0c0.3-1.1,0.5-2.2,0.5-3.3
					C155.2,137.3,155.1,136.5,155,135.8z M143,145.4c-0.7,0-1.3-0.1-2-0.3c-3.2-0.9-5.3-3.8-5.3-7c0-0.7,0.1-1.3,0.3-2
					c0.9-3.2,3.8-5.3,7-5.3c0.7,0,1.3,0.1,2,0.3c3.2,0.9,5.3,3.8,5.3,7c0,0.7-0.1,1.3-0.3,2C149.1,143.3,146.1,145.4,143,145.4z"/>
			</g>
		</g>
		<g>
			<rect x="175.4" y="133.4" class="st8" width="98.8" height="5.1"/>
			<rect x="175.4" y="203.7" class="st8" width="66.3" height="5.1"/>
			<rect x="175.4" y="191.9" class="st8" width="98.8" height="5.1"/>
			<rect x="175.4" y="180.2" class="st8" width="98.8" height="5.1"/>
			<rect x="175.4" y="168.5" class="st8" width="98.8" height="5.1"/>
			<rect x="175.4" y="156.8" class="st8" width="98.8" height="5.1"/>
			<rect x="175.4" y="145.1" class="st8" width="98.8" height="5.1"/>
		</g>
		<rect x="175.4" y="110" class="st12" width="69.7" height="8.8"/>
		<rect x="87.2" y="85.6" class="st13" width="25.6" height="3.9"/>
		<rect x="124.9" y="85.6" class="st13" width="25.6" height="3.9"/>
		<rect x="162.6" y="85.6" class="st13" width="25.6" height="3.9"/>
		<rect x="269.7" y="80.5" class="st13" width="13.3" height="13.3"/>
	</g>
	
		<ellipse transform="matrix(0.7071 -0.7071 0.7071 0.7071 -104.3643 139.1294)" class="st14" cx="115.8" cy="195.5" rx="30.8" ry="30.8"/>
	<g>
		
			<rect x="54.5" y="233.8" transform="matrix(0.7071 -0.7071 0.7071 0.7071 -146.3851 121.7212)" class="st5" width="38.6" height="7.6"/>
	</g>
	<path class="st5" d="M86.8,224.5c-16-16-16-42,0-57.9c16-16,42-16,57.9,0s16,42,0,57.9S102.8,240.5,86.8,224.5z M140.8,170.5
		c-13.8-13.8-36.2-13.8-50,0c-13.8,13.8-13.8,36.2,0,50c13.8,13.8,36.2,13.8,50,0C154.6,206.8,154.6,184.3,140.8,170.5z"/>
	<path class="st1" d="M140.8,170.5c-13.8-13.8-36.2-13.8-50,0c-13.8,13.8-13.8,36.2,0,50c13.8,13.8,36.2,13.8,50,0
		C154.6,206.8,154.6,184.3,140.8,170.5z M94,217.4c-12-12-12-31.6,0-43.6c12-12,31.6-12,43.6,0c12,12,12,31.6,0,43.6
		C125.5,229.4,106,229.4,94,217.4z"/>
	<g>
		<path class="st7" d="M23.2,288.1c-3-3-3-7.8,0-10.7l31.5-31.5c3-3,7.8-3,10.7,0c3,3,3,7.8,0,10.7L34,288.1
			C31,291,26.2,291,23.2,288.1z"/>
	</g>
	<path class="st15" d="M65.5,245.8L65.5,245.8l-42.2,42.2l0,0c3,3,7.8,3,10.7,0l31.5-31.5C68.4,253.6,68.4,248.8,65.5,245.8z"/>
	<path class="st14" d="M144.1,207.7l-40.5-40.5c-3.5,1.5-6.7,3.7-9.4,6.3l43.6,43.6C140.5,214.3,142.6,211.2,144.1,207.7z
		 M146.6,196.1l-31.4-31.4c-1.9,0-3.8,0.2-5.6,0.6l36.4,36.4C146.4,199.9,146.5,198,146.6,196.1z M135.7,219l-43.4-43.4
		c-0.5,0.6-0.9,1.1-1.4,1.7l43,43C134.5,220,135.1,219.5,135.7,219z M121.9,225.8l-36.4-36.4c-0.4,1.8-0.6,3.7-0.6,5.6l31.4,31.4
		C118.2,226.3,120.1,226.1,121.9,225.8z"/>
	<polygon class="st9" points="333.7,263.1 326.4,270.5 273.3,219.1 282.4,210 	"/>
	<polygon class="st11" points="268.9,198.3 261.5,205.6 273.3,219.1 282.4,210 	"/>
	<path class="st10" d="M268.7,198.7c-0.5-2.2-1.5-4.3-2.3-5.1c-1.7-1.7-16.7-7.3-16.7-7.3s5.6,15.1,7.3,16.7
		c0.8,0.8,2.9,1.8,5.1,2.3"/>
	<path class="st16" d="M333.7,263.1L282.4,210l-13.5-11.7l-0.3,0.3c-0.5-2.1-1.4-4.1-2.3-4.9c-1.7-1.7-16.7-7.3-16.7-7.3l80.4,80.4
		L333.7,263.1z"/>
	<polygon class="st17" points="277.8,214.5 330.1,266.8 333.7,263.1 282.4,210 	"/>
	<polygon class="st18" points="268.6,198.5 265.2,201.9 277.8,214.5 282.4,210 282.4,210 268.9,198.3 268.6,198.5 	"/>
	<path class="st19" d="M268.7,198.7c0-0.1,0-0.1,0-0.2l0,0c-0.2-1.1-0.6-2.1-1-2.9c0,0,0,0,0,0c-0.1-0.2-0.2-0.4-0.3-0.6
		c0,0,0-0.1-0.1-0.1c-0.1-0.2-0.2-0.3-0.3-0.4c0-0.1-0.1-0.1-0.1-0.2c-0.1-0.1-0.1-0.2-0.2-0.2c-0.1-0.1-0.2-0.3-0.3-0.4
		c-1.7-1.7-16.7-7.3-16.7-7.3l15.7,15.7L268.7,198.7z"/>
	<g>
		<g>
			<path class="st20" d="M219.4,259.1v-0.4c0-6.2-3-12-8-15.6c-6.8-4.9-10.4-13.2-9.3-21.5c1.3-10.4,9.7-18.7,20.1-19.9
				c0.9-0.1,1.8-0.1,2.6-0.1c12.6,0,22.9,10.3,22.9,22.9c0,7.2-3.5,14.1-9.3,18.5c-5.2,3.9-8.2,9.6-8.2,15.8v0.4H219.4z"/>
			<path class="st21" d="M224.8,203.4c11.7,0,21.1,9.5,21.1,21.1c0,6.7-3.2,13-8.6,17c-5.3,3.9-8.5,9.6-8.9,15.8h-7.3
				c-0.4-6.2-3.6-12-8.7-15.7c-6.3-4.5-9.6-12.1-8.6-19.9c1.2-9.5,9-17.2,18.6-18.3C223.2,203.4,224,203.4,224.8,203.4 M224.8,199.8
				c-0.9,0-1.9,0.1-2.8,0.2c-11.2,1.2-20.3,10.3-21.7,21.4c-1.1,9,2.7,17.9,10.1,23.2c4.6,3.3,7.3,8.6,7.3,14.2v2.2h14.4v-2.2
				c0-5.6,2.7-10.8,7.5-14.3c6.3-4.6,10-12.1,10-19.9C249.5,210.9,238.4,199.8,224.8,199.8L224.8,199.8z"/>
		</g>
		<g>
			<path class="st22" d="M229.2,273h-8.9c-0.9,0-1.6-0.7-1.6-1.6v-7.5h12.2v7.5C230.9,272.2,230.1,273,229.2,273z"/>
		</g>
		<g>
			<path class="st22" d="M226.9,274.6h-4.4c-0.7,0-1.2-0.6-1.2-1.2v-7.9h6.8v7.9C228.2,274.1,227.6,274.6,226.9,274.6z"/>
		</g>
		<g>
			<path class="st23" d="M224.8,260.8L224.8,260.8c-0.5,0-1-0.3-1.1-0.9l-9.7-33.1c-0.1-0.5,0-1,0.4-1.3c0.4-0.3,0.9-0.3,1.3-0.1
				l9.1,5.5l9.1-5.5c0.4-0.3,1-0.2,1.3,0.1c0.4,0.3,0.6,0.8,0.4,1.3l-9.7,33.1C225.8,260.5,225.3,260.8,224.8,260.8z M217,229.1
				l7.7,26.3l7.7-26.3l-7.1,4.3c-0.4,0.2-0.9,0.2-1.2,0L217,229.1z"/>
		</g>
		<g>
			<path class="st24" d="M230.5,271.3h-11.4c-1.2,0-2.1-0.9-2.1-2.1v-9.6h15.6v9.6C232.6,270.4,231.6,271.3,230.5,271.3z"/>
		</g>
		<g>
			<rect x="216.4" y="263.5" class="st25" width="16.7" height="1.9"/>
		</g>
		<g>
			<rect x="216.4" y="259.6" class="st25" width="16.7" height="1.9"/>
		</g>
		<g>
			<rect x="216.4" y="267.4" class="st25" width="16.7" height="1.9"/>
		</g>
	</g>
	<g>
		<path class="st26" d="M15.1,47c2-2,5.1-2,7,0l3.4,3.4l8.8,8.8l56.3,56.3l3.8,9.6l1.3,2c0.8,1.3-0.7,2.8-1.9,1.9l-2-1.3l-9.6-3.8
			L25.8,67.8L17,59l-3.4-3.4c-1.9-1.9-1.9-5.1,0-7L15.1,47z"/>
		<path class="st27" d="M22.1,47c-2-2-5.1-2-7,0l-1.5,1.5c-1.9,2-1.9,5.1,0,7L17,59l1.3-1.3l2-2l2-2l2-2l1.2-1.1L22.1,47z"/>
		<polygon class="st28" points="34.4,59.3 25.6,50.5 24.4,51.6 33.2,60.5 		"/>
		<polygon class="st28" points="22.4,53.7 20.3,55.7 29.1,64.5 30.1,63.5 31.2,62.5 		"/>
		<polygon class="st28" points="18.3,57.7 17,59 25.8,67.8 27.1,66.5 		"/>
		
			<rect x="22.3" y="54.9" transform="matrix(0.7071 -0.7071 0.7071 0.7071 -36.2742 34.676)" class="st29" width="2.9" height="12.4"/>
		<polygon class="st29" points="24.4,51.6 22.4,53.7 31.2,62.5 33.2,60.5 		"/>
		<polygon class="st20" points="34.4,59.3 33.2,60.5 31.2,62.5 30.1,63.5 86.4,119.8 90.7,115.6 		"/>
		<polygon class="st7" points="30.1,63.5 29.1,64.5 27.1,66.5 25.8,67.8 82.1,124.1 86.4,119.8 		"/>
		<path class="st30" d="M95.8,127.2l-1.3-2l-2.7,2.7l2,1.3C95.1,130,96.6,128.5,95.8,127.2z"/>
		<polygon class="st31" points="90.7,115.6 86.4,119.8 82.1,124.1 91.8,127.9 94.4,125.2 		"/>
	</g>
	<path class="st32" d="M288.6,138.4v-33.5h-13.4v33.5l-16.6,25c-1.5,2.2,0.1,5.2,2.8,5.2h41.1c2.7,0,4.3-3,2.8-5.2L288.6,138.4z"/>
	<path class="st33" d="M288.6,138.4v-33.5h-13.4v33.5l-16.6,25c-1.5,2.2,0.1,5.2,2.8,5.2h41.1c2.7,0,4.3-3,2.8-5.2L288.6,138.4z"/>
	<path class="st34" d="M288.6,101.6h-13.4c-0.9,0-1.7,0.8-1.7,1.7l0,0c0,0.9,0.8,1.7,1.7,1.7h13.4c0.9,0,1.7-0.8,1.7-1.7l0,0
		C290.3,102.3,289.6,101.6,288.6,101.6z"/>
	<path class="st32" d="M288.6,101.6h-13.4c-0.9,0-1.7,0.8-1.7,1.7l0,0c0,0.9,0.8,1.7,1.7,1.7h13.4c0.9,0,1.7-0.8,1.7-1.7l0,0
		C290.3,102.3,289.6,101.6,288.6,101.6z"/>
	<path class="st35" d="M288.6,138.4v-33.5c0.9,0,1.7-0.8,1.7-1.7c0-0.9-0.8-1.7-1.7-1.7h-6.3v67h20.1c2.7,0,4.3-3,2.8-5.2
		L288.6,138.4z"/>
	<polygon class="st36" points="270.3,151.8 261.4,165.2 302.5,165.2 293.6,151.8 	"/>
	<polygon class="st37" points="282.4,165.2 302.5,165.2 293.6,151.8 282.4,151.8 	"/>
	<path class="st38" d="M288.6,157.7c0,0.5-0.4,0.8-0.8,0.8c-0.5,0-0.8-0.4-0.8-0.8s0.4-0.8,0.8-0.8
		C288.3,156.9,288.6,157.2,288.6,157.7z"/>
	<path class="st38" d="M293.7,160.2c0,0.9-0.8,1.7-1.7,1.7c-0.9,0-1.7-0.8-1.7-1.7c0-0.9,0.8-1.7,1.7-1.7
		C292.9,158.5,293.7,159.3,293.7,160.2z"/>
	<path class="st38" d="M275.2,161.1c0,0.5-0.4,0.8-0.8,0.8c-0.5,0-0.8-0.4-0.8-0.8c0-0.5,0.4-0.8,0.8-0.8
		C274.9,160.2,275.2,160.6,275.2,161.1z"/>
	<path class="st38" d="M278.6,156c0,0.5-0.4,0.8-0.8,0.8c-0.5,0-0.8-0.4-0.8-0.8c0-0.5,0.4-0.8,0.8-0.8
		C278.2,155.2,278.6,155.6,278.6,156z"/>
	<path class="st38" d="M283.6,161.9c0,0.9-0.8,1.7-1.7,1.7s-1.7-0.8-1.7-1.7c0-0.9,0.8-1.7,1.7-1.7S283.6,161,283.6,161.9z"/>
</g>
</svg>
