<svg id="Layer_1" data-name="Layer 1" xmlns="http://www.w3.org/2000/svg" viewBox="0 0 872 989"><defs><style>.cls-1{fill:#9b9c03;}</style></defs><title>ritviz face black</title><path class="cls-1" d="M138.58,830.19a47.3,47.3,0,0,0,16,10.39,39.62,39.62,0,0,0,14,2.61,44.73,44.73,0,0,1,12-16.84,30.48,30.48,0,0,1,27-6.45,21.38,21.38,0,0,1,9,6.49c8.34,10.08,8.22,27.13,6,37.59a43.45,43.45,0,0,1-25,31.08,61.25,61.25,0,0,0-17-9.09,53.48,53.48,0,0,0-23-2.62c-.48.25-3.81,2.07-4,5.18-.08,1.37.43,3.2,4,6.48a34.32,34.32,0,0,0,14,7.79,121.27,121.27,0,0,0,6,16.86,114.23,114.23,0,0,0,12,20.75c4.93,7,9.94,14.13,18,20.75,11.36,9.37,22.1,12.27,30,14.29a84.16,84.16,0,0,0,18,2.62,41.72,41.72,0,0,0-9-6.49,35.42,35.42,0,0,0-12-3.9,113.29,113.29,0,0,1-18-23.35,138.31,138.31,0,0,1-14-33.71,46,46,0,0,0,13,0c4.64-.66,13.48-1.91,22-9a45.67,45.67,0,0,0,17-29.78c2.76-20.6-8.68-35.94-9.95-37.6a83.07,83.07,0,0,0-20-16.87c-16.95-10-32-9.63-50-9.13-7.41.21-11.12.93-15,2.58C149,815.27,142.15,824.47,138.58,830.19Z"/><path class="cls-1" d="M260,828.8h77.8V800.61a112,112,0,0,1,31.7-2.34V828.8h66.28a41.14,41.14,0,0,1,7.69,5.87,47.28,47.28,0,0,1,6.72,8.22l-15.37,1.18V931A75.58,75.58,0,0,0,480.93,891a70,70,0,0,0,6.72-24.66c1.07-13.72-2.31-24.74-4.8-32.88-1.07-3.51-2.13-6.32-2.88-8.22l210.36,1.17a108.33,108.33,0,0,1,9.6,8.22c2.48,2.38,4.71,4.75,6.73,7.05l-59.56,74a83,83,0,0,1,65.32,7c6.46,3.77,15.63,9.25,24,21.14A81.5,81.5,0,0,1,747,965a13.88,13.88,0,0,1-12.49-1.18,18.52,18.52,0,0,1-6.72-8.22c-.86-2.94-4.43-14.09-14.41-21.14a27.83,27.83,0,0,0-22.09-4.69c-10.68.05-25.82,1.09-40.35,5.87-3.54,1.16-9.26,3.28-15.36,5.87-7.05,3-12.92,5.91-17.29,8.22a19.13,19.13,0,0,1-12.49-5.87,25.8,25.8,0,0,1-5.76-9.4Q637.5,888.11,675,841.72H573.14v81a25.48,25.48,0,0,0,5.76,11.74,17.85,17.85,0,0,0,15.37,5.88,63.5,63.5,0,0,1-12.48,3.52c-7.24,1.26-15.25,2.64-24-1.17-3.31-1.45-9.43-4.81-15.37-12.92V841.72l-32.66-1.18a60.36,60.36,0,0,1,5.77,15.27c3.62,15.63.37,28.88-1,34.06-6.77,26.33-26,39.4-33.62,44.62a74.64,74.64,0,0,1-36.5,12.92l-23.06-5.87-10.56-7L406,926.27l-1-82.2h-36.5l1,81a23.06,23.06,0,0,0,6.73,10.57,16.39,16.39,0,0,0,14.41,3.52l-4.81,3.53a93.85,93.85,0,0,1-21.13,1.17c-13.63-.8-17.46-4-19.21-5.87a25.31,25.31,0,0,1-5.76-10.57c-.64-3.13-1.28-6.27-1.93-9.4v-74H303.22q.5,40.51,1,81A23.5,23.5,0,0,0,310,935.67a16.87,16.87,0,0,0,15.37,4.7l-13.45,4.69-19.21-2.34a19.16,19.16,0,0,1-15.37-7.05,27.57,27.57,0,0,1-5.76-12.92V842.89a17,17,0,0,1-8.65-7A22.3,22.3,0,0,1,260,828.8Z"/><path class="cls-1" d="M275,798c.42,2.54,1.82,8.62,7,13a20,20,0,0,0,11,5c3.25.27,6.08-.5,7,1,.74,1.21-.26,3.09-.5,3.5-3,5.28-14.36,4.24-17,4-4.19-.38-17.29-1.58-24-12a23.28,23.28,0,0,1-3-7A30.93,30.93,0,0,1,275,798Z"/><path class="cls-1" d="M547.5,794.5a21.22,21.22,0,0,0,5,11c7.06,8,17.73,7.12,19,7l4,1a31.72,31.72,0,0,1-11,6c-2.08.64-15.72,4.58-27-4a28.81,28.81,0,0,1-10-15,29.33,29.33,0,0,1,20-6Z"/></svg>