<svg id="Layer_1" data-name="Layer 1" xmlns="http://www.w3.org/2000/svg" viewBox="0 0 768 575.25"><defs><style>.cls-1{fill:#020202;}.cls-2{fill:#94170b;}.cls-3{fill:#040204;}.cls-4{fill:#98351a;}.cls-5{fill:#020001;}.cls-6{fill:#161415;}.cls-7{fill:#2d3139;}.cls-8{fill:#444d56;}.cls-9{fill:#31343c;}.cls-10{fill:#474c54;}.cls-11{fill:#393b44;}.cls-12{fill:#0c0e15;}.cls-13{fill:#161416;}.cls-14{fill:#595a5b;}.cls-15{fill:#1a1513;}.cls-16{fill:#32353d;}.cls-17{fill:#2e373e;}.cls-18{fill:#1d1a1c;}.cls-19{fill:#474c51;}.cls-20{fill:#2f2d34;}.cls-21{fill:#3a261f;}.cls-22{fill:#5b2215;}.cls-23{fill:#aa9874;}.cls-24{fill:#111011;}.cls-25{fill:#46444e;}.cls-26{fill:#161316;}.cls-27{fill:#3f404a;}.cls-28{fill:#363a3a;}.cls-29{fill:#140f0c;}.cls-30{fill:#181719;}.cls-31{fill:#32353c;}.cls-32{fill:#4c4f58;}.cls-33{fill:#858079;}.cls-34{fill:#463c2f;stroke:#1a1513;}.cls-34,.cls-35,.cls-39,.cls-50,.cls-54{stroke-miterlimit:10;}.cls-35{fill:#231b16;}.cls-35,.cls-50,.cls-54{stroke:#000;}.cls-36{fill:#4c392a;}.cls-37,.cls-39{fill:#66523d;}.cls-38{fill:#20140d;}.cls-39{stroke:#67523e;}.cls-40{fill:#402b06;}.cls-41{fill:#18130f;}.cls-42{fill:#5d5854;}.cls-43{fill:#6b615d;}.cls-44{fill:#b79f91;}.cls-45,.cls-46,.cls-47,.cls-48{fill:#dbafa9;}.cls-45{opacity:0.26;}.cls-46{opacity:0.75;}.cls-47{opacity:0.69;}.cls-48{opacity:0.88;}.cls-49{fill:#510909;}.cls-50{fill:#827e75;}.cls-51,.cls-53{fill:#020201;}.cls-51{opacity:0.16;}.cls-52{fill:#030403;}.cls-54{fill:#302e27;}.cls-55{fill:#6f6758;}.cls-56{fill:#4d5054;}.cls-57{fill:#656972;}.cls-58{fill:#030102;}.cls-59{fill:#4b4c52;}.cls-60{fill:#381c10;}.cls-61{fill:#603726;}.cls-62{fill:#704738;}.cls-63{fill:#88624d;}.cls-64{fill:#906650;}.cls-65{fill:#a57e5c;}.cls-66{fill:#2b1407;}.cls-67{fill:#9d887a;}.cls-68{opacity:0.83;}.cls-69{fill:#301102;}.cls-70{fill:#2d1911;}.cls-71{fill:#a58e86;}.cls-72{fill:#423f3e;}.cls-73{fill:#703521;}.cls-74{fill:#121112;}.cls-75{fill:#7f665b;}.cls-76{fill:#4c200f;}.cls-77{fill:#230c03;}.cls-78{fill:#9b643e;}.cls-79{fill:#1f1308;}.cls-80{fill:#040102;}.cls-81{fill:#75442c;}.cls-82{fill:#562815;}.cls-83{fill:#39170a;}.cls-84{fill:#7f4b28;}.cls-85{fill:#824527;}.cls-86{fill:#764328;}.cls-87{fill:#51291d;}.cls-88{fill:#6b4430;}.cls-89{fill:#34150f;}.cls-90{fill:#6f4435;}.cls-91{fill:#26170c;}.cls-92,.cls-93{fill:#251308;}.cls-93{opacity:0.31;}.cls-94{fill:#0c0906;opacity:0.89;}.cls-95{fill:#252628;}.cls-96{fill:#343941;}.cls-97{fill:#17191c;}.cls-98{font-size:7.28px;font-family:MyriadPro-Regular, Myriad Pro;}</style></defs><title>ME</title><path class="cls-1" d="M536.85,404.08A104.5,104.5,0,0,1,566,393.87a203.27,203.27,0,0,1-37.28-2.56c-15.6-2.54-21.81-4.64-26.81-7.4-4.4-2.44-7.79-5.18-14.38-10.55-7.85-6.41-14-12.11-18.21-16.17l-5.45-9.37L454.3,346c-3.74-1.78-5.18-3.84-5.79-5.44-.46-1.23-.35-1.94-1-4.09a23.84,23.84,0,0,0-2.3-5.11c-2.8-5.06,1.28-17,1.28-17,2.43-11.46-1.42-16-3.41-36.93-1-10.57-.66-20.38,0-40,.48-13.93,1.34-25.69,2.13-34.47h-7.4a14.08,14.08,0,0,1-8.17-2c-.17-.11-.58-.17-.68-.47-.29-.89,2.6-1.74,3.23-3.44.91-2.46-3-6.48-6.57-8.89-4.17-2.79-6.45-2.4-11.56-4.54a43,43,0,0,1-11-7c-24.31-18.91-117.21-34.41-121-33.19-.75.24.29-.08-32.17,18.38-31.44,17.88-37.48,21.06-44.42,29.87-3.77,4.78-12.95,17.76-15.07,35.49-1.22,10.25,1.1,12.13,1,32.17-.05,16.25-1.59,18.65-1.27,29.37a115.31,115.31,0,0,0,7.66,37.53c0,10.77.35,19.58.68,25.7,1,19.17,2.13,30.47,2.13,30.47a164.51,164.51,0,0,1,1,18.64c-.05,5.9-.43,10.27-.51,11.23-.72,8.71-2.28,52.43-5.35,162.28l1,.07c25.94,1.29,51.71-3.5,77.18-7.84,27.05-4.61,54-9.67,81.28-13a445.14,445.14,0,0,1,78.94-3.15,34,34,0,0,0-.73-5.56c-.77-3.54-1.74-5.23-1.79-8.43a18.7,18.7,0,0,1,2.55-9.45l1.53-19.4c-.64-2.47-1.51-6.08-2.29-10.47-1.76-9.83-1.9-16.8-2.3-28.59-.7-20.69-.87-16.86-1-25.79-.22-12.79-.05-30,1.53-50.81a10.6,10.6,0,0,0,4.6,3.06,10.25,10.25,0,0,0,3.83.51,22.73,22.73,0,0,0,6.38,8.43c3.23,2.6,6.08,3.28,9.19,4.34,6,2.05,14.21,7.15,30.64,17.36a38.25,38.25,0,0,0,4.34,2.3c3.42,1.54,6.5,2.94,10.21,2.55a13.44,13.44,0,0,0,6.13-2.29c6.07,2.69,6.64,3.06,6.64,3.06,2.78,1.79,2.74,2.82,6.38,5.11a6.42,6.42,0,0,0,4.09,1.27c1.06-.1,2.49-.6,2.55-1.27.07-.93-2.49-1.27-4.09-2.56-3.78-3-2.9-12.05.26-18.13C524.47,412.63,527.35,409.13,536.85,404.08ZM257.14,531c-6.44,0-6.43-10,0-10S263.58,531,257.14,531ZM276,525.25c-6.45,0-6.43-10,0-10S282.43,525.25,276,525.25Z"/><path class="cls-2" d="M410.47,519.48a20.8,20.8,0,0,0-8.6-10.46,49.11,49.11,0,0,1-13.21,3.78c-4.53.62-9.74,1.34-15.72-.72-3.54-1.22-10.86-3.74-12.39-10.21-1.39-5.88,2.93-11.09,3.71-12l13.78-12,25.79-13.79q-1.92-14.81-3.83-29.62a41.89,41.89,0,0,1-19.91,4.09c-5.36-.26-12.21-.58-17.88-5.62-8.76-7.8-7.3-20.31-7.15-21.45,1.95-14.63,16-21.05,16.85-21.44l20.43-15.32a14.22,14.22,0,0,0-1.53-9.45c-2.51-4.44-6.85-6-8.68-6.64s-8.89-2.9-24.51,4.09A93.46,93.46,0,0,0,334.13,378c-5.71,4.95-6.33,6.43-21.19,22.72-15.25,16.72-17.63,18.5-20.68,20.17-8.14,4.46-15.42,5.11-26.81,6.13-5.83.52-8.52.32-34.73-.51-10.87-.35-16.31-.52-16.59-.51-6.3.16-38,1-58,23.74-8.07,9.21-11.19,18.56-13.28,25-7.68,23.81-2.83,44.74,0,54.13a166.74,166.74,0,0,0,7.92,26.3c1.77,4.49,3.63,8.66,5.52,12.51a177.78,177.78,0,0,0,40.45,6.86c25.94,1.29,51.71-3.5,77.18-7.84,21-3.58,42-7.42,63.05-10.53,1.49-.64,2.85-1.13,4-1.51a141.47,141.47,0,0,1,17.62-2.3c5.43-.36,7.78-.21,10.71-.24q6.66-.63,13.33-1.1a38.7,38.7,0,0,0,15-4.79,36.85,36.85,0,0,0,13-13.27A20.86,20.86,0,0,0,410.47,519.48ZM257.14,531c-6.44,0-6.43-10,0-10S263.58,531,257.14,531ZM276,525.25c-6.45,0-6.43-10,0-10S282.43,525.25,276,525.25Z"/><path class="cls-3" d="M403.23,529.44c-.44-1.32-2.12-1.82-3.22-2.12-3.4-1-6.09,0-8.95.59-3.3.7-5.72.71-10.55.68-4,0-8.54-.05-13.45-2A26.39,26.39,0,0,1,354,515a27,27,0,0,1-3-14.63c.38-9.38,5.44-12.45,7.49-19.66,1.66-5.85,1.56-14.65-6.3-27.49a73.72,73.72,0,0,0,1.19-13.11c0-6.78-.95-8.55-2.21-9.53-1.75-1.36-4.1-1.19-5.53-.94-2.63,2.28-6.64,5.64-11.75,9.45-8.15,6.08-14.22,10.61-23,14.3-5.71,2.4-10.12,3.42-16.34,4.85-4.62,1.06-7.41,1.45-24.76,4.08L258,464.08c-11.51,2.59-31.64,11.19-34.72,26.55-.87,4.34.1,8.17,2,15.83,1.33,5.24,3,9.36,10.47,24.26,8.55,17,10.29,19.32,12,25.79a63.33,63.33,0,0,1,2.06,14.27c8.05-1.25,16.08-2.66,24.07-4,14.63-2.49,29.24-5.11,43.88-7.52.56-.57,1.13-1.14,1.73-1.71,3.87-3.68,8.91-8.47,16.34-11.49,3.55-1.45,6.5-1.92,12.26-2.81,11.89-1.84,17-1.16,25.53-2a95.52,95.52,0,0,0,22.21-5.11l4.86-2C402.71,532.64,403.69,530.8,403.23,529.44ZM257.14,531c-6.44,0-6.43-10,0-10S263.58,531,257.14,531ZM276,525.25c-6.45,0-6.43-10,0-10S282.43,525.25,276,525.25Z"/><path class="cls-3" d="M283.06,138.8h-7.15c-1.85,1.13-5.11,3.11-9.19,5.62-14.37,8.84-17.44,11-23,12.77a46,46,0,0,1-14.55,2l-14.55,8.17c-15.56-7.8-19.83-8.23-20.69-7s2.21,3.72,3.33,10.07a21.58,21.58,0,0,1-.51,10.22,20,20,0,0,1-5.37,8.17c-6.42,6.35-10.7,14.58-16.59,21.44-8.61,10-15.7,22.86-29.87,48.51-16.78,30.36-17.16,36.94-22.47,44.94a20,20,0,0,0-3.58,8.17c-.69,4.11.58,5.67,0,10.47a27.93,27.93,0,0,1-2.55,8.42,39.71,39.71,0,0,1-7.15,11c-.52,8.58-.82,13.68-1,17.11-.42,7.19-.62,10.82-2.55,15.32a29.8,29.8,0,0,1-4.6,7.4l.77,6.13c1.79,2.49,4.3,5.93,7.4,10,3.85,5,7.72,9.74,17.87,21.44,11.73,13.53,17.65,20.32,20.17,22,13.18,8.58,17.62,11.24,17.62,11.24a29.12,29.12,0,0,1,6.64,4.85c2.42,2.45,3,4,7.4,10.21,3.3,4.6,4,5.18,4.85,5.62,3.65,1.94,8,.52,10.47-.51l20.94,18.12,4.34,1.53q-.39-7-.77-14a90.35,90.35,0,0,1,7.92-11c3.61-4.29,5.56-6.55,8.93-8.42a23.27,23.27,0,0,1,10.73-2.81,151.64,151.64,0,0,0-12.77-12c-5.59-4.67-7.49-5.55-9.19-8.94-2.58-5.14-.85-8.41-4.08-11.74-2-2.1-3.57-1.68-7.92-3.58-3.73-1.62-6.62-4-12.25-8.68-5.89-4.89-8.87-7.36-12.52-11.49-4.71-5.32-9.86-11.15-12.51-19.91-1.51-5-.65-5.83-2.8-12.51-1.54-4.75-3.1-7.83-1.79-9.19,1.65-1.72,6.1,1.13,7.4-.51,1.08-1.37-1.56-3.88-1.53-6.9,0-4.47,6.18-6.42,11-10.47,3.47-2.92,7.56-7.94,10-17.1q-.56-23.07-.26-47.49c.32-24.48,1.31-48,2.81-70.47a104.78,104.78,0,0,1,13.53-17.11c19.67-20.1,42.92-27.45,55.92-30.38a16.79,16.79,0,0,1,3.83-6.89,17.1,17.1,0,0,1,9.19-5.11C282.55,143.23,282.81,141,283.06,138.8Z"/><path class="cls-4" d="M591.66,346.8c-.16-.56,5.76-2.21,9.53-8.17a21.05,21.05,0,0,0,3.07-10.89L686.64,310a12.68,12.68,0,0,1,8.51,2,14.91,14.91,0,0,1,5.76,8C614.42,343,592,347.9,591.66,346.8Z"/><path class="cls-5" d="M206.34,296.72c-.32-.69.89-1.87,3.32-4.21,1.78-1.72,2.33-1.94,2.68-2.05,1.89-.56,4.34.22,4.6,1.41.17.83-.78,1.67-1.92,2.68a9.92,9.92,0,0,1-4.21,2.3C209.62,297.15,206.77,297.63,206.34,296.72Z"/><path class="cls-5" d="M203.66,308.85a4.89,4.89,0,0,1,2.43-3.32c1.17-.5,1.91.08,2.8-.51,1.6-1.07.76-4,1.66-4.22.69-.19,2,1.25,2.17,2.81.15,1.93-1.64,3.32-2.29,3.83A8.78,8.78,0,0,1,203.66,308.85Z"/><path class="cls-6" d="M110.85,379.44l-6.76,10.21a47.7,47.7,0,0,0,4.59,9.07c2.67,4.11,4.78,6,9.06,10.47,6.49,6.82,5.32,6.43,13.54,15.32,3.85,4.17,6.62,7.16,10.72,11.1,6.22,6,10.58,10.12,17.23,14.3,5,3.16,5.66,2.74,8.94,5.11a39,39,0,0,1,12.51,15.7l2,.76c-.08-2.8-.17-5.61-.25-8.42a73.25,73.25,0,0,1,6.13-11.36,75.62,75.62,0,0,1,10.59-12.77c3.92-3.81,7-6.81,12.13-9.32a37.22,37.22,0,0,1,9.06-3.06A46,46,0,0,0,209,431.27c-12.6,7.37-18.26,18.9-20.42,24.13a3.87,3.87,0,0,0,.63,4,4.08,4.08,0,0,0,3.58,1.27q.31,5.82.64,11.62a73.52,73.52,0,0,1,22.08,18.89,38,38,0,0,1,1.92-11,39.24,39.24,0,0,1,4.59-9.31,46.91,46.91,0,0,1,10.47-11.49c4.32-3.39,6.81-4.07,8.3-4.34a15,15,0,0,1,5.36,0,44.61,44.61,0,0,1-11.74-7.54,46.13,46.13,0,0,1-13-20c0-1-.3-4.1-2.68-6-1.86-1.48-4.54-1.84-4.85-1.28s1.27,1.38,1,2.18-2.6,1.56-4.46.89c-3.05-1.1-2.58-4.92-5.87-7a8.8,8.8,0,0,0-5.37-1c-3.87,0-10.59-5.38-23.1-29.11a4.21,4.21,0,0,1-2.56,2c-2.23.53-4.5-1.3-4.34-2s2.8,0,5.36-1.79c.74-.52,1.87-1.33,2-2.42.64-4.11-12.8-8.81-13.54-9.07-5.17-1.77-8.15-1.13-9.32-.89a18.58,18.58,0,0,0-5.87,2.55,108.44,108.44,0,0,1-14.93,6.64,53.45,53.45,0,0,1-12.77,2.81l1.28-2.55a42.88,42.88,0,0,0,7-2.17c4.19-1.71,5.73-3.14,8.81-4.73a33,33,0,0,1,13.53-3.7c0,.11-10.47,2.3-20,3.83-4.23.67-7.19,1.05-7.41.38s2.5-2.16,4.85-3.32a18,18,0,0,0-4.47,0C116.74,372.57,112.32,377.59,110.85,379.44Z"/><path class="cls-5" d="M210.17,313.82c-1.35.13-1.46,1.34-3.7,3.07-1.56,1.19-2.45,1.34-2.56,2.17a1.93,1.93,0,0,0,1.28,1.91c1.05.29,1.65-1,4.85-3.57,1.69-1.35,2.54-1.8,2.43-2.43S211.19,313.73,210.17,313.82Z"/><path class="cls-6" d="M199.19,180.16c.13,7.29.15,13.42.13,18-.1,27.17-1.41,26-.51,29.24.14.51,1.09,3.9-.13,4.72-.83.56-1.92-.55-3.32-.13-1.78.54-2.47,3.09-2.81,4.35-.91,3.38.12,5.62,1,9.95a98.55,98.55,0,0,1,1.54,13.41c.51,6.75,0,6.39.63,8.81.79,3.16,2,5.5.9,7.14a3.92,3.92,0,0,1-2.68,1.41,66.2,66.2,0,0,0-2.56-17.36c-1.39-4.8-2.63-6.92-4.59-7.54-1.32-.41-3,.28-6.26,1.66-3.84,1.62-6.93,3-7.15,5.11-.12,1.29.84,2.15.39,2.68-.72.85-3.2-1.25-4.73-.38s-1.66,4.84-.51,7.79c.42,1.05.58,1,4.22,6.89.6,1,1.66,2.76,1,3.7-.4.59-1.29.62-1.41,1.28,0,.16,0,.46.51,1.2a7.42,7.42,0,0,0,1.66,1.61c1.34.86,1.37,2.27,3.07,5.61,1.82,3.58,3,4.43,2.55,5.62s-1.59.81-2.17,2c-.33.7-.34,1.59.77,4.47,1.27,3.31,1.65,3.05,2,4.6.58,2.3.46,5.65-1.53,7.27a8.51,8.51,0,0,1-1.92.9c-1.93.77-4.61,1.83-5.87.76-.49-.41-.37-.81-1-1.15a2.66,2.66,0,0,0-2.5.13c0,.21,4.6.64,6.64-1.66a6.26,6.26,0,0,0,1.28-3.83c.07-2.51-1.27-3.88-.51-4.85.61-.79,1.7-.12,2.42-.89,1.07-1.14.15-4.18-1.53-6.13-1.19-1.38-1.68-.95-2.94-2.3s-1.06-2-2.68-6.25c-1.16-3.09-1.92-4.55-1.4-5s1.94,1,2.81.51c1-.61.9-3.78-.77-5.49-1.11-1.14-2.27-1-3.57-1.53-1.77-.75-3.76-2.8-4.85-8.43a5.74,5.74,0,0,0-3.83.51c-.74.41-1.84,1.27-1.66,1.79.25.75,2.93.43,3.32.38a91.72,91.72,0,0,0,.76,11.88c.5,3.75,1.24,7.45,1.53,8.93.76,3.79,1.14,5.68,1.28,6.13.84,2.67,1.69,4.06,1,4.85a2.11,2.11,0,0,1-2.81,0c-.61-.79.56-1.95,0-3.32-.42-1-1.72-1.91-2.42-1.66-1.22.44-.92,4.37.13,12,1.83,13.43,3.38,19.63,2.55,19.92s-2.72-5.54-7.66-12.9c-5.6-8.34-12.85-15.31-14.43-14.29-.51.33.19,1.14.39,6,.1,2.51,0,4.14,1.15,5.23.64.6.92.34,1.65.89,1.55,1.18,1.23,3.09,2.05,6.39.49,2,1.62,5.4,2.68,5.36.87,0,1.21-2.38,1.91-2.3.19,0,.48.22,1,2.43.67,2.66.58,3.67,1.41,4.34.55.44,1,.36,1.66.51,3.58.83,5.12,7.5,5.74,10.21.76,3.28,1.13,4.91.39,5.62-1.62,1.51-5.55-2.09-13.79-4.47-6.56-1.9-6.37-.28-12.38-2.17-7.5-2.37-9.67-5.48-14-4.34-.63.16-4.06,1-5.23,4.08a6.77,6.77,0,0,0,.25,5,31.32,31.32,0,0,0,6,.26c3.44-.19,4.65-.82,6.64-.26s2,1.54,5,4a34.33,34.33,0,0,0,9.58,5.36,44.3,44.3,0,0,0,5.87,1.79c4.34,1,4.22.42,6.13,1.15,3.37,1.27,3.24,3,8.55,6.76,2.4,1.69,3.42,2,3.32,2.56-.25,1.22-6.28.83-13.66.63-12-.31-18-.47-24.51.51-6.07.93-12.42,2-18.64,6.64a31.9,31.9,0,0,0-8,8.94l-1.15-3.06a31.86,31.86,0,0,1,2.17-2.94,37.85,37.85,0,0,1,4.47-4.47c3.3-3.19-1.18-7.36.89-13.79.24-.74,2-6.09,5.87-6.89,1.9-.4,3.58.47,5.87,1.66,4.08,2.11,4.66,4.2,8,5,1.73.4,4,.41,4.21-.26.29-.88-3.3-2-10.47-6.51-4.41-2.75-6.53-4.49-9.19-3.83-1.74.43-2.7,1.64-3.57,1.15-1.46-.81-.46-5.05-.39-5.36.76-3.13,2.35-4.91,4-7.15a71.63,71.63,0,0,0,5.11-8.94c1.71-3.41,3.28-8.78,2.17-17.1.85-1.68,2.13-4.16,3.7-7.15,3.4-6.48,5.38-10,7.15-13.28,4.64-8.6,7.87-15.58,9.57-19.27,4.47-9.67,3.85-9.53,8.17-19A197,197,0,0,1,159.11,231a131.18,131.18,0,0,1,13.78-19.66c3.47-4,4-4.11,7.28-8.17,5.12-6.37,6.23-9.21,10.85-14.68A79.24,79.24,0,0,1,199.19,180.16Z"/><path class="cls-7" d="M195.74,191.74s0,.29.52,12.94c.26,6.45,1.31,14.33,1.7,17.19.54,4,1,6.92-.51,8s-4.47-.42-4.94-.68c-3.55-2-5.62-6.75-4.25-8.85,1-1.57,3.64-1.2,3.74-2.22.08-.78-1.41-1.69-2.72-2-1.92-.51-3.77.08-6,1.19a30.91,30.91,0,0,0-8,5.79c-4.38,4.6-4.12,7.07-7.49,8.34-2.22.83-3.55.22-4.6,1.53-.27.35-.68,1-.85,6.3-.08,2.57,0,2.9-.34,3.57-1,2-2.86,1.45-4.42,3.07-2.5,2.59.28,6-2.22,9.87-1.33,2.09-2.35,1.45-4.08,4.08-1.22,1.87-.91,2.5-2.38,5.79s-2,3-2.9,5.45c-1.48,3.95-.47,5.62-1.87,7.15-.95,1-2.93,1.92-7.49,1,4.85-11.86,9.41-21.6,12.94-28.77a297.37,297.37,0,0,1,14.29-26.38c9.27-15.08,15.07-21.2,17.88-24a97.52,97.52,0,0,1,10.89-9.36c.8-1.63,1.9-3.58,2.55-3.41S195.79,189.9,195.74,191.74Z"/><path class="cls-7" d="M125.11,300.34A86.27,86.27,0,0,0,129,312.42c1.75,4.29,2.63,6.44,4.26,8.17,2.48,2.64,4.4,2.8,8.17,6.47,2,2,1.72,2.17,3.57,4.08,5.5,5.7,10.1,5.95,15.32,12.09,2.2,2.58,2,3.3,1.87,3.57-.71,1.21-5.19-.11-8.85-1.19a70.52,70.52,0,0,1-6.81-2.38c-9.12-3.74-13.68-5.6-17.7-7.83-2.46-1.36-4.12-2.42-6.3-2-1.91.33-3,1.56-5.61,4.08-1.59,1.5-3.93,3.65-7,6.13a55,55,0,0,0,7-13.45,71.16,71.16,0,0,0,2.89-13.44,48.19,48.19,0,0,1,1.19-7.49A30.55,30.55,0,0,1,125.11,300.34Z"/><path class="cls-7" d="M115.91,391.4s2.27-.74,12.94-3.92c2.82.31,3.52.79,3.58,1.2.12.93-3.22,1.38-6.3,4.42-.39.38-3.67,3.67-2.73,5.45a2.45,2.45,0,0,0,2.22,1c2.17-.14,3.25-3.13,3.74-2.89s.14,2.18-1,3.74a6.76,6.76,0,0,1-3.06,2.21c-2.45,1-4.3.37-4.43.85s1.79,1.76,4.09,2.39c3.06.83,3.95-.2,7.49.51,2.3.46,2,.91,4.42,1.36,3.35.62,4.33-.15,5.79.85s1.86,2.56,2.38,4.26c.92,3,.14,4.08,1,4.76,1.72,1.32,5.21-2.37,8.17-.85.67.34,1.59,1.09,1.53,1.87-.11,1.65-4.56,3.54-8.68,3.24-1.32-.1-2.14-.39-2.38,0-.48.78,2.07,3.35,4.43,4.93,2,1.38,3.78,2.55,5.95,2.39,3.58-.27,5.3-3.91,6.64-3.24s-.42,4.55,1.53,6.3c1.57,1.4,3.65-.24,6,1.36a5.15,5.15,0,0,1,2.21,4.09,5.9,5.9,0,0,1-2.55,4.42c-3.87,2.78-10.14,0-12.94-1.19-8.26-3.61-12.43-9.3-12.93-8.85s2.23,4.75,6.47,8.68a40.68,40.68,0,0,0,12.93,8c4.46,1.63,6.69,1.46,11.07,3.92a30.56,30.56,0,0,1,5.27,3.74l3.41-.51a67.45,67.45,0,0,1,6.81-10.72,70.08,70.08,0,0,1,21.61-18.39,197.48,197.48,0,0,0-14.81,13.62c-6.74,6.88-9.5,10.72-11.57,15.32a39.72,39.72,0,0,0-2,5.62,112.2,112.2,0,0,1,7.66-11.07c1.22-1.55,3.68-4.6,7-8.13a117.25,117.25,0,0,1,17-14.68l6.3-.85a3.53,3.53,0,0,0-.85-2.94c-1.16-1.12-3-.45-8.86.56-5,.86-5.11.61-6.12,1.19-3.53,2-3.1,5.59-5.62,6.13-2,.43-2.61-1.75-6.2-2.35s-5.07,1.15-6.27.14c-2.1-1.78,2-7.73-.18-9.81-1.21-1.19-3.27,0-8.25.61-5.37.69-11,.34-11.1-.51-.27-1.59,18.64-4.72,18.55-9-.06-2.86-8.66-3.79-9.53-9.36-.38-2.43.88-3.5.17-4.47-2.74-3.73-23.64,9.06-25.4,6.51-.89-1.27,3-6.49,8.46-9.67,8.84-5.11,17.45-2.39,17.68-3.76.32-1.85-14.95-9.1-31-6.31-1.23.21-4.45,1.05-10.89,2.72C123.67,389.14,115.93,391.45,115.91,391.4Z"/><path class="cls-8" d="M192.51,189c-1.38-.27-3,3.52-6.65,7.55L184.51,198c-1.4,1.51-2.43,2.57-2.75,2.91a44.24,44.24,0,0,0-4.4,5.09c-3.1,4.42-2.36,6.76-5.27,8.68-1.29.85-2.63,1.18-2.56,1.53s2.22.33,4.09.17c2.57-6.74,4.53-8.41,5.95-8.34.8,0,1.29.61,2.05.34,1.36-.48.93-2.75,2.21-5.62a11.65,11.65,0,0,1,4.6-5.27c2.47-1.39,3.83-.54,4.93-1.88C195,193.64,193.89,189.29,192.51,189Z"/><path class="cls-8" d="M193.19,247.23c.27,0,.58,2.83,1.19,8.51.79,7.27,1,11.81,1.36,20.6.12,2.62.13,3.38,0,3.4-.41.06-2.22-7.88-2.89-16.34C192.2,255.2,192.69,247.24,193.19,247.23Z"/><path class="cls-8" d="M159,295.91c1.78,1.33,1.36,4,1.36,9.87,0,.43.08,6.17.51,11.07a48.32,48.32,0,0,0,3.41,14.63c1.68,4,2.72,4.73,8,15.15.46.91,1.9,2.68,1.53,3.07s-2.41-.82-3.75-2.05c-2.53-2.32-3-5.17-3.74-7.66-2.21-7.36-5.16-6.72-7.66-14.29a36.89,36.89,0,0,1-1.7-9.88c-.51-7.8,1.26-10.94-1.2-15.31-1.12-2-2.55-3.23-2-4.26C154.31,295,157.31,294.66,159,295.91Z"/><path class="cls-8" d="M126.47,309.87c.75-.11,2.17,2.34,5.1,13.95,3.11,1.85,5.71,3.2,7.49,4.09,5,2.49,5.78,2.4,8.51,4.25s3.05,2.68,5.79,4.09c1.4.72,2.61,1.17,2.55,1.7-.08.81-2.94,1.12-3.57,1.19a22.94,22.94,0,0,1-7.83-.68c-7.65-1.55-6.83-1-8.85-1.7-2.59-.92-5.36-1.91-7.83-4.6a14.94,14.94,0,0,1-3.92-8.85,30.45,30.45,0,0,1,.69-5.44C125.48,312.59,125.93,309.94,126.47,309.87Z"/><path class="cls-8" d="M117.11,332c-1.12,0-1.33,3.21-3.92,7.66-1.55,2.69-3,4.16-2.89,4.26s1.74-1.44,8.68-9C118.18,332.46,117.54,332,117.11,332Z"/><path class="cls-8" d="M120.34,349c-.19.48,7,1.61,12.77,7.83,1.69,1.81,2.72,3.47,5.44,5.27a21.28,21.28,0,0,0,6.64,2.9,55.19,55.19,0,0,0,5.79.68c4,.46,5.72,1.07,5.79.85.15-.49-8.38-3.71-10.73-4.6-4.55-1.72-6.24-2.22-8.68-3.91s-2.62-2.53-4.76-4.26C127.12,349.37,120.52,348.55,120.34,349Z"/><path class="cls-8" d="M108.6,358.72c-.7.22-.12,2.85-.51,8.51-.22,3.18-.35,4.81-1,6.64a14.91,14.91,0,0,1-5.1,6.64,42,42,0,0,1,10-8,44.17,44.17,0,0,1,13.62-4.94,45.83,45.83,0,0,1,5.44-.68c4.59-2.27,5.43-3.35,5.28-3.92-.44-1.63-9.8-1.09-17.87,1.37a48.35,48.35,0,0,0-5.11,1.87C110.29,359.71,109.11,358.55,108.6,358.72Z"/><path class="cls-8" d="M126.64,370.8a22,22,0,0,0-6.3,1.71,18.24,18.24,0,0,0-7,4.93,17.49,17.49,0,0,0-3.65,7.23c0,.05-.18.34-.09.43.46.46,5.4-6.5,10.55-6,2.06.22,2.67,1.48,4.77,1.2s3-1.63,4.42-2.9c4.31-3.87,9.75-4.81,13.45-5.45,4.41-.76,7.64-.26,7.66-.51s-1.8-.55-9.7-1.36l-11.24,4.94c-4.08,1-9.47,2.07-9.87,1C119.5,375.67,120,374.51,126.64,370.8Z"/><path class="cls-8" d="M116.94,390.38a58.78,58.78,0,0,1,10.38-6.47c4.3-2.09,7.41-2.93,16.34-6.64A37.06,37.06,0,0,0,150.3,374c1.87-1.21,2.21-1.73,3.57-2.22,2.38-.84,4.52-.38,7,.17,2.25.51,3.51,1.14,7.66,3.07,7.56,3.51,8.65,4,8.68,4.93h0a13,13,0,0,1-1.51,3.4,5.81,5.81,0,0,1-4,2.08c-1.18,1.63-1.15,2.25-1,2.52.79,1.1,5-2.42,8.68-1,1.53.59,2.73,2.49,5.11,6.3,2,3.24,1.6,3.35,2.72,4.6,2.91,3.21,5.44,2.09,7.32,4.76s0,4.84,1.88,6.81,4.54.21,7.83,2.38c1.8,1.2,3.76,3.57,3.57,6-.29,3.67-5.5,5.77-5.11,6.47.31.54,3-1.36,7.32-1.36,2.05,0,3.65.42,3.92-.17.33-.75-2-2.06-1.7-2.56s4.85,0,7.31,3.24a8.23,8.23,0,0,1,1.37,2.72l-7.15,1c-3,2.24-6,4.78-9.19,7.66A126.25,126.25,0,0,0,191,449.44a60.12,60.12,0,0,1,13.11-17.19,59,59,0,0,1,8.85-6.64,22.24,22.24,0,0,0-9,3.07c-1.16.71-3,2-6.63,6.17a97.11,97.11,0,0,0-8.05,10.59,114.17,114.17,0,0,0,8-12.42c.82-1.49,1.62-3,1.75-3.28,2.51-4.88,2.26-5.06,4.21-8.81,1.62-3.12,2.42-4.22,2-4.59s-2.56.46-4,1.91c-2,2.13-1.45,4.16-2.42,7.91A26,26,0,0,1,190.38,439a34.44,34.44,0,0,1-3.44,2.51,31.64,31.64,0,0,1-6,3,28.29,28.29,0,0,1-4.43,1.19,31.68,31.68,0,0,1-14.3-1.15c-2.51-.72-3.74-1.34-3.83-1.15-.17.36,4.11,3.71,9.32,4.85,7.42,1.62,13.7-1.92,13.79-1.66s-5.36,3.87-12,3.45c-9.36-.6-15.31-8.88-16.73-11a46.08,46.08,0,0,0,12.13,4.85c5.93,1.43,11.69,2.82,17.44,0,3.12-1.5,5-3.62,8.22-7.32,1.17-1.34,4.16-4.79,3.32-6-.56-.81-2.59-.23-2.68-.64-.15-.62,4.77-1.41,5.23-3.83a2.31,2.31,0,0,0-.89-2.29c-1.46-.91-3.3,1.44-7.53,2.42-1.25.29-4.94,1.15-6-.38-1-1.36.28-4.5,2.42-5.87.85-.55,1.58-.64,8.3-.64,2.15,0,3.58.32,5.23-.51.25-.12,2.36-1.18,2.27-2.4-.1-1.54-3.65-2.62-6.09-3-1.88-.26-3.58,0-10.6,1.66-4.66,1.11-9.32,2.55-9.32,2.55-5.07,1.56-7.19,2.48-7.53,1.91s2.65-2,5.23-6.38c1-1.76,2-3.95,3.07-3.83.3,0,.33.22,1.27.77a4.78,4.78,0,0,0,2.17.89c1,0,1.73-1,2.17-1.53,2.78-3.5,5.74-5.19,5.49-5.49s-1.85,1.44-5,2.43c-1.69.53-3.15.65-6.63.63-5.63,0-5.47-.33-8.3-.25-4,.11-7.33.82-13.28.64-.94,0-2.1-.09-2.3-.64-.43-1.23,4.24-3.89,5.49-4.6a41.38,41.38,0,0,1,10.22-4.08,80.72,80.72,0,0,1,9.57-1.41c2.78-.29,4.49-.36,5.11-1.53s-.2-3.24-1.41-4.34c-1.05-.95-3-1.78-10.21-.13-8.3,1.9-13.8,3.16-18.13,7.92-2.66,2.92-3.87,6.07-4.72,5.74-.7-.26-.79-2.72.13-4.72.84-1.84,2.22-2.62,7.53-5.75,3.83-2.25,6.51-3.85,6.25-4.59s-2.82,0-3.44-1.28c-.44-.86.43-1.93.12-2.17s-1.92,1.43-3.57,2.56c-3.65,2.49-8.54,2.45-8.81,1.65s4.48-3.2,6-4a43.18,43.18,0,0,1,6.77-2.68,74.05,74.05,0,0,1,16.34-2.81c-3.66-4.62-7-5.45-8.68-5.62-1.35-.13-2.33.08-11.24,3.32-3.64,1.32-5.46,2-7.27,2.68-6.31,2.41-6.82,2.82-9.45,3.58-3.8,1.09-4.72.82-8.55,1.66A52.39,52.39,0,0,0,116.94,390.38Z"/><path class="cls-9" d="M221.45,428.34a32.47,32.47,0,0,0-11.24,4.42c-3.67,2.35-5.45,4.61-14.12,14.3L190,453.87a45.11,45.11,0,0,1,7.15,4.76,42.1,42.1,0,0,1,9.53,10.56c3.53,5.72,3.85,9.72,6.47,10,1.38.17,2.55-.8,3.74-1.87,6.33-5.7,8.19-9.71,12.77-14.47,3.15-3.29,6-6.16,10.55-7.32,3.39-.86,6.43-.45,6.47-.85.05-.57-6,.09-11.41-3.07-7.12-4.14-10.33-13.18-12.59-19.57C222.08,430.51,221.69,429.19,221.45,428.34Z"/><path class="cls-10" d="M222.64,432.08c-1.45,0-6,.35-8.68,3.74-.26.34-2.16,2.77-1.36,4.26.42.8,1.29.69,3.74,2,1.46.81,2.18,1.21,2.38,1.7.85,2.11-3.78,4.74-3.06,6.47.54,1.29,3.82,1.59,6.3.85,2.25-.67,2.89-1.93,3.91-1.53s.88,1.66,2.39,5.28c1.09,2.63,1.5,2.82,1.7,2.89,1.56.54,3.09-2.1,5.44-1.7a3.56,3.56,0,0,1,1.71.85,6.14,6.14,0,0,1,3.06-2.55c2.55-.95,5.05.89,5.28.51s-4.26-3.73-8.34-6.81c-8-6-10.36-8.71-12.09-11.4A28.06,28.06,0,0,1,222.64,432.08Z"/><path class="cls-11" d="M242.38,199.06c-1.25.2-1.56,4.27-1.7,6.13-.3,3.93.14,5.88.34,9.36.44,7.4-.77,11.39,0,11.57s2.34-2.43,2.55-5.27c.19-2.52-.92-3.43-.51-6,.29-1.77.89-1.69,1.71-3.92.21-.59,2-5.69-.34-9.87C244.1,200.52,243.21,198.92,242.38,199.06Z"/><path class="cls-11" d="M250.89,182.21c-.93-.26-3.74,3.17-2.55,5.44.4.76,1.34,1.6,2,1.37C252,188.48,252,182.52,250.89,182.21Z"/><path class="cls-11" d="M253.45,170.12c-.93,0-2.46,3.7-.85,6.47.71,1.23,2.22,2.58,2.89,2.21C256.87,178.05,254.82,170.08,253.45,170.12Z"/><path class="cls-12" d="M227.74,184.08c-.07-.3-1.24-.09-7,.34-4.88.37-7.32.47-9.54,2a5.35,5.35,0,0,0-2,2.56c0,.09-.7,2,0,2.55s2.12-.92,4.94-2.21a33,33,0,0,1,4.76-1.54C222.2,186.8,227.9,184.75,227.74,184.08Z"/><path class="cls-11" d="M257.53,165.19c-2.71,1.44-4,1.66-4.42,1.19a1,1,0,0,1,0-1.19C253.63,164.37,255.4,164.29,257.53,165.19Z"/><path class="cls-11" d="M235.4,161.61c.2-.22,1.42.93,6.3,4.43,1.51,1.07,2.57,1.81,2.73,3.06.13,1.09-.42,2.41-1.2,2.55s-1.32-.65-2-1.53a14.57,14.57,0,0,1-2-3.4C237.5,163.28,235.16,161.89,235.4,161.61Z"/><path class="cls-11" d="M239.49,174.72c2.88-.83,4.13-2.82,4.42-2.56s-1.16,3.06-3.74,4.6a3.57,3.57,0,0,1-2.38.68c-1.38-.19-2.6-1.45-2.39-2S237.19,175.37,239.49,174.72Z"/><path class="cls-13" d="M382.64,192.08a205.3,205.3,0,0,1,7.15,25.36c1.28,6,2,10.8,3.06,17.87,1.61,10.68,1.94,15.54,2,17.2.26,4.06.11,4.45.34,11.57,0,0,.27,8.07.86,17,.84,12.88,1.52,14.33,2,22.81a187.17,187.17,0,0,1,0,22.3l4.59-10.73c.21-4.37.28-9,.17-13.78A200.36,200.36,0,0,0,400,271.91c-1.25,4.64-1.79,5.66-2,5.62-.42-.08-.17-3,.17-9.19.28-5.14.48-8.8.51-11.07.07-5.66-.87-6.72-2.38-16.51-1.86-12-.65-11.76-2.39-20.08-1.69-8.1-4-13.73-3.06-14.13.56-.25,2,1.66,3.23,3.57C398.51,235,399.9,247,400.17,253a76.52,76.52,0,0,0,1,10c1.25,7.37,2.26,6.68,3.07,12.59.83,6.1.17,9.92,3.06,12.6.88.81,1.52,1,2,2,1.36,2.72-1.2,5.16.17,7.66.89,1.62,2.76,2.05,2.56,2.73s-2,.11-2.9,1.19-.3,2.76.17,3.74c.77,1.6,1.91,1.87,1.87,2.73,0,.6-.62,1.39-3.06,2.27a143.15,143.15,0,0,0-.68,19.51c.32,9.57.51,15.42,2.55,22.47,1,3.45,1.77,4.89,1.87,8,.18,5.29-1.78,9,.35,11.23,1.09,1.14,2.49,1.08,2.72,2.22.29,1.42-1.8,2.13-2,3.91-.42,3,4.55,6.86,6.12,6,.78-.44.45-1.87.17-5.28a85.43,85.43,0,0,1,.86-18.72c.43-2.52,1.25-6.18,1.7-6.13s.33,6.11.17,10.21c-.49,12.49-1.66,20.44.68,21.28.94.34,1.58-.78,2.72-.34,2.19.84,3.34,6.3,1.19,9-1.7,2.17-4.38,1.19-5.95,3.75-.77,1.25-1.11,3.09-.34,3.91.95,1,3.32.2,3.4.51s-4.09,1.05-4.43,2.9a2.42,2.42,0,0,0,1.54,2.38c1.31.47,2.25-.94,3.23-.51,1.16.5,1.7,3.3.68,5.27-1.42,2.75-5.39,3-5.28,3.75s5.72.17,6.3,1.87c.36,1.06-1.43,2.45-1.19,2.73s1.26-.29,4.94-2.9a150,150,0,0,1,0-29.45c.52-5.17,1.34-10.31,1.53-18.89.15-6.86-.32-6.43-.34-15.15,0-14.28,1.21-12.6,1.19-25.36,0-4.36-.16-7.17,1.19-10.89,1-2.86,2.15-4,3.75-8.34a55.31,55.31,0,0,0,2-7s-.79,3.67-4.6,19.91q-.33,6.46-.68,12.94c4.68-.61,5.9-.09,6.13.51s-.88,1.4-1.53,3.57c-.39,1.29-.73,3.51,0,3.92,1.32.75,5.31-5,6.3-4.43.53.34,0,2.41-.86,3.92-1.31,2.44-3.27,2.36-7,5.27-2.15,1.7-3.31,2.63-3.24,3.92a3.75,3.75,0,0,0,3.58,3.06c1.5,0,1.73-1.38,3.57-2,2.46-.88,3.38,1,6.13.68s2.71-2.25,7.32-4.59c2.08-1.06,3.13-1.6,4.59-1.54,3.87.17,6.14,4.36,6.47,4.09s-1.46-5.07-5.11-6c-2-.49-2.76.66-7,1.36-2.82.47-6.15,1-7.49-.51s-.06-4.51.68-6.81c.86-2.67.69-8,.34-18.72-.45-13.5-1.82-24.57-2-26.38-1.54-12.16-2.8-15.85-4.09-29.45-.6-6.35-.68-9.24-.68-11.4,0-1.92,0-6.7,2-20.6,1.61-11.23,2.49-14.45,2.9-22.3.17-3.31.18-6,.17-7.83l-6.47.34a9.55,9.55,0,0,1-4.09-2.21c-2.54-2.39-2.12-5-4.59-7.83-.86-1-2.12-1.75-4.6-3.23A102.47,102.47,0,0,0,415,185c-4.55-2.11-8.39-3.87-11.29-5.18h0q19.59,8.43,18.9,10.73c-.2.65-1.62.93-4.26.85a104.13,104.13,0,0,0-11.57-7.66c-2.26-1.28-1.84-.92-4.43-2.38-5.61-3.18-7.07-4.58-8.34-3.92s-2.26,3.79-3.86,4.56l-.15.09c-.93.6-.93,2.19-.75,3.52,14.82,21.74,17.25,25.88,17,26-.51.37-14.24-19.51-15.49-18.72-.91.58,5.27,13.22,14.13,23.83,2.35,2.82,4.83,5.14,9.87,9.7,5.9,5.35,7.54,6.08,9.36,6.13,2.39.07,4.25-1,6.64.17,1.35.68,2.68,2,2.41,2.71-.41,1.08-4.42.6-6.5.18-1.82-.36-8.53-2-18-12.35-.49-.54-2.55-3.16-6.67-8.41-8.18-10.43-10-13-11.74-16.68a47.42,47.42,0,0,1-3.41-9.87Z"/><path class="cls-14" d="M408,229.36c-.23,0,0,1.73.42,8.2.2,3.3.22,4.31.43,6.95.41,5.17.63,7.76,1.19,7.83.4,0,1.12-1,2.56-7C409.36,232.24,408.31,229.29,408,229.36Z"/><path class="cls-14" d="M415.15,289.61a6.4,6.4,0,0,0,1.19,4.77c1.28,1.47,2.75,1.15,3.57,2.55.62,1.05.15,1.82-.51,5.62a32.26,32.26,0,0,0-.68,6.64,14,14,0,0,0,.85,5.1c1.37,3.39,4.59,6.36,5.62,5.79,1.43-.78-3.81-6.92-2.89-16.34a104.3,104.3,0,0,0,.51-12.09c0-1.7-.11-3.36-1.19-4.08C419.56,286.2,415.51,289.33,415.15,289.61Z"/><path class="cls-14" d="M427.23,333c-.19,8.55-.2,15.57-.17,20.42.05,6.76.15,8,.51,24.85.32,14.83.34,18.38.52,18.39.33,0,.75-12.82,1.53-34.39.61-17,1.14-31.08,1.53-41Z"/><path class="cls-14" d="M416.51,324.16c-.47,1.15-.79,2.47-.17,3.24.75.94,2.19.18,3.06,1,1.19,1.13-.52,3.41-.34,7s2,6.43,2.73,6.3c.52-.1,0-1.83.85-4.6,1.06-3.67,2.9-4.14,2.89-6.64a6.71,6.71,0,0,0-2.21-4.59A7.94,7.94,0,0,0,416.51,324.16Z"/><path class="cls-15" d="M439.15,267.31c-1.39,5.07-2.44,9.56-3.24,13.28-.61,2.86-1.61,7.61-2.55,14-.38,2.6-.95,6.48-1.36,11.57-.32,3.91-.59,9-.51,15,.63-1.58,1.55-3.92,2.55-6.81,2.35-6.75,2.82-9.64,3.29-9.57.65.09.88,5.89-.73,11.79-.39,1.4-.26,3.9-2.05,5.44a5,5,0,0,1-1.87,1l-1,6.47a2.07,2.07,0,0,1,1.7.34c1.32,1.26-1.16,4.86-.17,5.79,1.41,1.32,8.16-4.32,9.87-2.72.63.58.16,1.73,1.2,2.72a3.4,3.4,0,0,0,2.21.85c0-3.54.08-8.51,0-14.47-.12-8.79-.19-13.19-.68-18.89-.54-6.14-.86-5.71-2.56-19.07-1-8-1.53-12.14-1.7-16-.23-5.37.1-6.16.17-16.34.06-8.22-.11-15.14-.17-15.14s-.09,5.28-.06,29.56Z"/><path class="cls-16" d="M440.68,272.08c-.22,0,.57,7.64.85,10.21.22,1.94.62,5.38,1,8.36.1.82.17,1.38.2,1.69,1.33,10.68,2,16,1.71,18.21-.6,4.67-2.27,7.5-.86,8.68a3.3,3.3,0,0,0,2.9.17c-.32-5.24-.86-12.63-1.87-21.45C443.09,284.85,441,272,440.68,272.08Z"/><path class="cls-16" d="M447.49,336.59a19.76,19.76,0,0,1-4.77,8.68,20,20,0,0,1-10.55,5.79c-.06.14-1.13,2.83,0,3.91s4.14-.35,5.11-.85a8.37,8.37,0,0,0,2.72-2c1-1.17,1.36-2.3,1.7-2.21s-.19,1.94.68,2.72c1.06,1,3.66-.25,4.94-.85,1.82-.85,1.57-1.12,4.08-2.55,3.26-1.86,4.84-2.07,6-2.05a8.17,8.17,0,0,1,1.61.2c4.09,1,6.31,5.31,6.39,5.25A9.09,9.09,0,0,0,460.6,347c-.87-.37-2-.67-9,0-5,.48-6.3.82-6.63.17-.53-1,1.55-3.72,3.57-3.74a4.56,4.56,0,0,1,2.72,1.36,10.19,10.19,0,0,1-3.4-3.57A7.13,7.13,0,0,1,447.49,336.59Z"/><path class="cls-17" d="M468.43,355.82c-2-1.54-6.29-4.34-11.58-3.91a21.21,21.21,0,0,0-7.15,2.21c-3.13,1.42-3.37,2.13-7,4.26-6.56,3.87-11,4.57-11.06,7,0,1.11.88,1.66.68,3.4s-1.33,2.51-1,3.06c.7,1.26,7.09-1.24,7.32-.68s-3.79,2.25-3.58,2.85,4.88-1.35,11.24-.8c.39,0,2.08.3,5.44.85,6.16,1,6.16,1.07,7.32,1.19,6.12.62,10.33-1.09,10.39-.85s-9.18,6.3-18.39,4.08a24.16,24.16,0,0,0-10.72-.51c-2.4.5-2.55,1-2.55,1.19-.05,1.06,4.84,2.05,4.76,2.39s-3-.81-5.95.17a8.73,8.73,0,0,0-4.09,3.06c1.36-.29,3.49-.69,6.13-1,5.23-.65,8-.43,12.08-.68a73.41,73.41,0,0,0,12.09-1.87c9.59-2.08,11.75-4.05,17-3.24,3.93.61,7.28,2.4,7.15,3.07-.21,1-9,.54-12.77.34a24.88,24.88,0,0,0-3.4,0,26.52,26.52,0,0,0-6.41,1.32,39.56,39.56,0,0,1-10.27,2.08c-5.43.15-9.59-1.91-9.73-1.48s2.06,2.09,4.47,3.16c3.75,1.66,6,1.16,6.45,2.41.58,1.59-2.87,2.89-2.72,5.61.1,2.06,2.24,3.59,4.76,5.62a20.33,20.33,0,0,0,3.75,2.38c5.84,2.92,11.9,4.67,17,6.64,9.65,3.72,8.07,5.21,13.78,6.3,4.56.87,8,.4,10.73,3.23,1.52,1.61,1.83,3.29,3.91,4.09.43.16,1.16.38,5.28,0s4.89-.75,6-.17c.73.4,1.06.93,2.59,4.24a68.85,68.85,0,0,1,2.85,6.48,13.65,13.65,0,0,1-2.55-5.11c-1.94-7.14,2.92-13.68,4.26-15.48a24.25,24.25,0,0,1,10.55-8c-18.48-6.67-23.6-11.8-24.68-15.32-.27-.89-.93-3.74-3.24-4.94s-3.81.48-6.63-.51c-3.16-1.11-2.57-3.68-5.79-5.11-3.45-1.53-6.37.41-7.66-1.36-.72-1,0-1.87-.34-3.4-.75-3.28-5.32-4.52-8-5.79C476,366.75,471.87,363.54,468.43,355.82Z"/><path class="cls-18" d="M468.09,356.16a15.9,15.9,0,0,0-9.71-3.74c-1.33,0-1.75.16-10.38,3.4-5.83,2.2-7.64,2.87-10,4.6-1.79,1.29-5.09,4-4.6,4.94s4.19-1.16,11.41-2.73c4.06-.88,8.49-1.49,8.68-.85.23.81-6.43,3.29-6.13,4.26.2.66,3.48,0,3.74.85.21.67-1.71,1.6-1.53,2s2.9-.2,5.28-.68c0,0,2.53-.51,7.83-1,3.59-.35,10.84-.66,11.06.51.18.95-4.27,2.89-8.51,3.74-5.66,1.15-9.8.13-9.88.62s3.16,1.71,7,1.94c5.11.3,8.79-1.38,8.85-1.19s-5.24,2.86-12.77,4.25a115.2,115.2,0,0,1-11.91,1.36c-5,.39-7.12.33-7.15.68-.05.56,5,2.13,10.72,1.88,3.9-.17,4.4-1,12.77-2.9a90.7,90.7,0,0,1,10-1.87c3.16-.37,5.1-.4,10.89-1,1.87-.2,3.41-.39,4.43-.51a47.44,47.44,0,0,0-8.51-7.66c-3.08-2.15-5-2.89-7.49-5.62S470.15,358,468.09,356.16Z"/><path class="cls-19" d="M488.17,381.53c-6,.4-10.92.58-14.47.68-4.66.12-7.39.1-7.83,1.36s1.32,3.47,3.24,3.74c2.47.36,3.68-2.85,6.46-2.55,1.65.18,3.19,1.51,3.07,2.38-.09.68-1.17,1-4.09,1.88-6.13,1.85-5.82,1.84-6.12,1.87-3.22.32-4.36-1.27-10.22-3.58-4.83-1.9-8.95-2.74-9-2.55s5.38,1.37,11.92,5.28a90.81,90.81,0,0,0,8.34,4.93c3.43,1.71,5.19,2.2,7.15,2,3.07-.25,5.56-2,5.44-2.39s-1.59.29-4.42.34c-.28,0-4.65.07-4.77-.68s4.31-2.07,6-2.55c3.85-1.13,5.23-1.06,9.7-2.38a27.12,27.12,0,0,0,3.92-1.37,21.41,21.41,0,0,0,5.78-3.91Z"/><path class="cls-18" d="M392.44,435.65c2.42,11.14,5.5,25.27,1.87,37.45-.69,2.3-1.68,4.77-1.36,8.34.39,4.33,2.34,6.15,3.74,10.38a26.28,26.28,0,0,1,.85,12.43c4.67-1.35,8.48-1.27,9,0s-2.09,4.25-6.69,6.81l5.37.25A21.47,21.47,0,0,1,411.63,522a21.06,21.06,0,0,1,.16,9c-.87,1.94-1.73,3.89-2.6,5.84-.84,6.84-.2,10.8.95,13.16q11.61-.07,23.2.52c-.2-1.5-.44-3.61-.73-6.79-1.16-12.72-.41-13.51-1.7-19.23-1.09-4.8-1.71-4.66-4.09-12.6-2-6.8-2.53-10.06-3.91-15.83-1.76-7.35-3.83-16-7.83-25.19-6.57-15.09-10.89-14.6-11.07-22.64-.05-2.64.26-10-2-16-.48-1.27-1.63-3.92-3.4-4.09-1.31-.11-2.35,1.18-2.73.86s.87-2,1.53-4.43a12.18,12.18,0,0,0,.34-4.6l-5.95,2.39a39.06,39.06,0,0,0-.17,7.49A38.32,38.32,0,0,0,392.44,435.65Z"/><path class="cls-20" d="M419.57,520.93c-1.13,1.07-1.69,1.61-2.21,2-3.39,2.86-5.58,3.53-5.45,4.09.24,1,6.72-1.93,11.07.85,4.17,2.67,5.51,10,4.25,15.32-.77,3.29-2.18,4.28-2.49,6.94,2.52.08,5,.19,7.56.31-.52-10.42.29-10.13-.3-15.93-.45-4.45-1.78-9.21-4.43-18.73-.44-1.61-.84-3-1.21-4.23a13.08,13.08,0,0,1-1.17,3.21C424.38,516.36,422.77,517.9,419.57,520.93Z"/><path class="cls-20" d="M397.45,448.08c4,9,6.05,11.64,4.93,15.49a29,29,0,0,1-2.55,5.79c-1.87,3.12-3.46,4.26-3.06,4.93.57,1,4.65-.15,7.66-1.7,3.61-1.86,5.51-4.92,5.91-4.62s-2.23,3.68-1.32,4.79,4.84-1.21,5.62-.17-2.63,3.34-2.55,7.15c0,2.36,1.38,4,1,4.25-.57.36-2.77-4.29-6.13-4.42-2.07-.08-4.27,1.56-4.26,2.89s2.39,1.44,2.9,3.24-1.85,3-3.07,7.15c-.2.7-1.17,4-.17,4.59s2.57-1.89,7.83-5.28c2.74-1.76,4.31-2.38,6.47-4.59a23.09,23.09,0,0,0,2.38-2.89c.14.1-2.45,6.55-8.34,11.06-3.88,3-7.36,3.7-7.15,4.6s3.32-.29,9,.85c1.65.33,3.26.8,4.93,0s2.1-2,2.38-1.88-.32,3.14-2.21,5.62a14.46,14.46,0,0,1-4.08,3.58c-3.13,1.86-5.2,1.61-5.62,3.06a2.35,2.35,0,0,0,1,2.55c1.91,1,5.61-2.49,7.49-4.25,3.16-3,4.41-5.29,5.28-4.94.49.2.5,1.39.51,3.75,0,3.07,0,4.64-.85,6.12a6.22,6.22,0,0,1-.63.9,32.18,32.18,0,0,0,4.8-4.66,6.05,6.05,0,0,1,.44-.49c-1.3-4.38-2.14-7-3.25-12.09-1.15-5.31-1.18-6.8-1.87-10.21-1.31-6.39-2.82-9-8.68-22.47-11.13-25.47-12.18-30.83-11.92-34,0-.24.35-4.3-.68-4.6-.41-.11-.72.43-1.87,1s-2.87,1-3.07.69c-.35-.61,4.45-2.63,4.43-5.62a3.53,3.53,0,0,0-2.38-3.24c-1.82-.48-3.54,1.32-3.75,1.54-1.8,1.88-2.1,5-.85,11.06A73.91,73.91,0,0,0,397.45,448.08Z"/><path class="cls-21" d="M330.89,461.53a85.82,85.82,0,0,0,13.28,33l271.66-128q-6-11.93-11.92-23.83Z"/><path class="cls-22" d="M701.53,322.12a12.52,12.52,0,0,0-1-2.89,14,14,0,0,0-1.13-1.83c-1.15-1.56-4.49-3.86-9.34-5.62q-12.1,2-24.64,4.34c-18.48,3.52-36.15,7.49-53,11.75a41.65,41.65,0,0,1-8.17,14.51q5.93,11.44,11.87,22.89c7.6-2.52,13.22-2.19,17-1.4,4.1.86,8.2,2.74,12.76.89a12.87,12.87,0,0,0,4.34-3.06c6.44-6.26,13-12.87,16.34-16.09,7.78-7.44,11-8.57,13.15-9.06a19.69,19.69,0,0,1,8.81.13,16.5,16.5,0,0,0,3.37-1.19,17.9,17.9,0,0,0,4.29-3.15c2.27-2.16,4.73-4.5,5.28-8.09A9.57,9.57,0,0,0,701.53,322.12Z"/><path class="cls-23" d="M600.3,344.21l2.68,1.4q1.54,3.21,3.06,6.64c1.45,3.28,2.76,6.47,4,9.57l1.91,6.13a3.7,3.7,0,0,0,2.43-.64,3.82,3.82,0,0,0,1.53-2.93,67,67,0,0,0-3.7-10.22,68,68,0,0,0-6.51-11.23,4.56,4.56,0,0,0-5.36,1.28Z"/><path class="cls-24" d="M267,184.25c.5-.08,1.06,3.61,3.57,8.43a38.47,38.47,0,0,0,2.94,4.72,3.83,3.83,0,0,0,1-2.68c-.11-1.21-1-2-.77-2.3s.59-.18,2.17.64a36.88,36.88,0,0,0,2.43,4.08c2.65,3.85,4.37,4.73,5.23,7.66.52,1.74.77,4.34-.38,5.11-.57.38-1.09.05-2.81-.13-1.53-.16-4.14-.42-5,.51-1.08,1.21.55,4.66,2.3,7.15,2.86,4.05,5.21,4.32,13.15,10.6,3.76,3,5.79,4.93,6,7.66.15,1.93-.69,3.34-.13,3.7.85.53,4.09-1.82,5.24-5.11.91-2.6.21-4.95-.51-7.27a23.36,23.36,0,0,0-5.62-9.32c-3.3-5.06-3.56-6.19-3.32-6.39s1.25.3,5.23,4.34a45,45,0,0,0,11.11,12.51,40,40,0,0,0,16.72,7.92,37.61,37.61,0,0,0,4.73.64,5.7,5.7,0,0,0,.89,2.55c1,1.48,2.63,2.32,5.75,2.94,6.25,1.23,7.53-.62,10.59.84,1.66.8,2.85,2.55,5.24,6,2.74,4,4.12,6,4.46,8.81.57,4.45-2,5.39-1.14,9.19.72,3.28,2.59,2.51,5.74,7.92,2.54,4.36,5.23,9.19,5.23,9.19.4.71,1.49,2.66,2.68,2.55.9-.08,1.24-1.25,1.66-1.15.78.19,1.51,4.57-.51,6.9-1.61,1.85-4.14,1.42-11.23,1.4-6,0-9.06,0-11.36.38-1.18.21-8.8,1.68-14.3,7.53-1.82,1.94-2.55,3.44-6.38,14.17-6.61,18.49-7.42,22.39-7.92,25.28a118.82,118.82,0,0,0-1.4,12.51c-.34,5.08-.35,9.47-.26,12.9A8.55,8.55,0,0,1,313.7,370c-1.9.58-2.77-.06-7.79-.89-5.19-.86-6-.46-7.14-1.53-2.33-2.13-1.53-5.84-2.68-6-.75-.11-1.42,1.39-2.69,3.45a53.33,53.33,0,0,1-4.85,6.38c-1.76,2-5.16,4.15-12.38,4.34q1.08-7.92,2.17-15.83l12.13,1.91,2.3-4.59-5-4.85a13.75,13.75,0,0,0-1.79-8,14.37,14.37,0,0,0-9.32-6.52,22.21,22.21,0,0,0-6.89-8.93c-1.4-1-3.12-2-3.7-4a6.82,6.82,0,0,1,1-5.23l4.21,1.27a34.75,34.75,0,0,0,24.25-6.25L306,311.91q-3.57-2.94-7.15-5.87l-13.66,2.68-2.55-7c2.57-5.25,1.45-8.36,1-9.32-.64-1.45-2-2.88-4.72-5.75-1.18-1.24-2.21-2.24-2.94-2.93l6.26-4c0-1.11.08-2.21.13-3.32a37.41,37.41,0,0,0-7.92,4.72c-.93.74-2.48,2-9.32,8.94-3.8,3.85-5.3,5.44-6.64,5a3,3,0,0,1-1.53-3.32c.51-1.76,3.29-2.07,3.19-2.94s-2.37-.53-3.32-2a4.05,4.05,0,0,1,0-3.32c.91-2.28,3-2.36,4.73-4.21,1-1.09,2.09-3,2-6.64a11.77,11.77,0,0,0,6.89,0c1.11-.35,4.94-1.55,6-4.6.85-2.42-.85-3.77-.89-8.42a19.25,19.25,0,0,1,.51-4.6,5.39,5.39,0,0,0-3.83-1.78c-2.75.12-4.52,3.35-5.49,5.1-2.05,3.73-1.06,5.19-2.94,8.17-1.27,2-4.1,5.15-5.87,4.6-2.38-.75-1.3-7.75-.76-27.7.29-11,.13-15,1.27-22.6.89-5.89,1.43-9.47,3.32-14.17,2-5,3.47-6.06,4.47-10.47C267.82,189.62,266.37,184.34,267,184.25Z"/><path class="cls-25" d="M267,183.48c1,2.15,1.77,3.91,2.3,5.11,2.31,5.27,2.37,5.84,3.44,7.28,1.56,2.08,2.36,2.14,3.07,3.95a6.9,6.9,0,0,1,.12,5,6.69,6.69,0,0,1-2.42,2.68c-2.76,2.23-3.66,5.43-5.11,10.6-.54,1.94-.79,3.39-1.53,9.83-.88,7.69-1.4,13.28-1.4,13.28-.52,5.49-1.59,10.95-1.66,16.46,0,3.09.09,5.75-1.53,8.69-1.35,2.43-3.55,5.28-4.73,4.85s-1.51-4.52-.13-7.66c.93-2.11,2.08-2.59,2.3-4.34.26-2-.94-3.85-2-5.11a177.33,177.33,0,0,1,.77-28.09c.18-1.77.4-3.51.63-5.23,1.56,5.45,2.3,6.44,2.68,6.38.71-.11,1.05-3.87.26-7.4-.58-2.59-1.18-2.47-1.53-4.34s0-3.52,3.19-11.24c2.07-5,2.38-5.44,2.68-7.14a45.84,45.84,0,0,0,.38-6.9C266.81,187.28,266.91,185,267,183.48Z"/><path class="cls-26" d="M276.17,148.25a20.39,20.39,0,0,0-5.11,6.77c-1.31,2.84-1.48,5.06-2.17,12.51-.18,1.95-.53,5.7-1,10.72,2.71,4.49,5.18,8.23,7.15,11.11,4.19,6.1,3.48,4.41,6.38,8.8,2.66,4,4.24,6.91,7.92,9.32a19.53,19.53,0,0,0,2.55,1.41c-1.58-2.16-2.86-3.87-3.7-5-1.86-2.47-3.83-5.6-5-7.28-.34-.49-1.46-2.12-1.15-2.42s2.36,1.7,4.47,1.15a3,3,0,0,0,.81-.36,45.67,45.67,0,0,1-11.41-24.54l5.62,4.22c-4.22-2.27-5.74-4.8-6.38-6.52-1.22-3.25-.07-5.73.76-16.21C276,150.35,276.12,149.05,276.17,148.25Z"/><path class="cls-27" d="M270,163.57a55.53,55.53,0,0,0-1.66,8.94,53.91,53.91,0,0,0-.25,6.89q2.25,3.61,4.85,7.4c1.41,2,2.82,4,4.21,5.88,1.15,0,1.83-.2,2-.64.44-.89-1.85-2.13-3.83-5-1.84-2.66-2.57-5.47-2.29-5.62s1,1.1,3.7,4.6c2.48,3.19,3.11,3.83,3.7,3.7.29-.07,1.12-.45,1.4-3.83A54.32,54.32,0,0,1,270,163.57Z"/><path class="cls-28" d="M259.19,206.08c-.71,2.9-1.65,6.87-2.68,11.62-.68,3.12-2.47,11.54-4.6,24.38-.65,3.95-1.62,9.82-2.68,17.62-1.2,8.86-2.93,17.66-3.95,26.55a28.35,28.35,0,0,1-2.05,8.55c-1.73,4.07-3,4.2-3.95,7.28-.73,2.47-.16,5.51,1,11.49,1.53,7.8,2.65,9,3.57,9.7a8.62,8.62,0,0,0,6.13,1.28c1-3.13,2.22-7.39,3.32-12.51a149.19,149.19,0,0,0,2.55-16.85c.89-8.71,1-15.33,1.15-20.68.46-22.1.63-31.6.77-37C258,230.24,258.33,219.43,259.19,206.08Z"/><path class="cls-29" d="M254.6,288.29c-1.64,5.48-2.75,9.77-3.45,12.64-1.11,4.52-1.68,7.36-4.21,9.19-1.73,1.25-2.66.79-4,2.17a8,8,0,0,0-.64,9.32,6.57,6.57,0,0,0,4.72,3.07A4.44,4.44,0,0,0,250,324c1.76-1.25,1.37-3.59,2.3-7.92.52-2.46.74-2.14,1.66-5.49a46.72,46.72,0,0,0,2-12.12A35.23,35.23,0,0,0,254.6,288.29Z"/><path class="cls-30" d="M242,324.29c-.09,5.51-.09,13.08-.77,24.39-.23,3.89-.47,7.06-.64,9.06-2.94,4.66-5.59,8.65-7.78,11.87-7.66,11.23-9.3,12.37-10.47,12.9a8.55,8.55,0,0,0-4.21,3.31c-.54.9-.48,1.29-.9,1.79-.8,1-2.76,1.65-8,.13L208,377.65c1.58-2.16,2.75-4,3.57-5.36.58-1,1.18-2,.77-2.68s-1.14-.6-1.53-.64c-.73-.06-2,.1-2.43.9s.7,1.92.26,2.55a1.77,1.77,0,0,1-2.17.13c-1.47-1.11.69-4.5-.77-9.07-.52-1.64-1-1.87-1.27-1.91-.88-.14-2.17,1.28-2.43,2.81-.33,1.9,1.19,2.48,1.4,5.61,0,.67,0,1.1.13,2.17A22.42,22.42,0,0,0,204,375c.5,2.06.89,3.33,1.28,4.73a41.42,41.42,0,0,1,1.53,7.66c.11,1.2.21,2.37,0,2.42-.38.09-1.3-3.47-3.32-9.19-2.28-6.48-2.88-6.95-3.57-10.21a44.24,44.24,0,0,1-.77-8.81,136.45,136.45,0,0,1,.51-13.92c.25-3.41-.13-9.51-.89-21.57-1-15.49-1.26-15.56-1.53-22.6-.14-3.51-.12-4.81,0-21.44.17-24.23.18-27.82,0-33.7-.32-10.48-.91-17.36-.77-17.37s1.34,11.7,2,23.88c1.44,24.81.5,43.14.51,43.14s.38-54.39.9-80c0,0,.11-5.75,0-18.38-.15-15.71-.55-19.11-1-22C197,166,193.11,159.23,193.7,159s6,7.73,8.68,18.51c1.65,6.65.67,7.82,1.79,15.32,1.05,7,2.87,19.2,10.6,28,6.49,7.37,11,5.31,18.51,11.75,5.29,4.51,11.73,12.87,14.17,29.74-.53,3.35-1.29,8.39-2,14.55A445.41,445.41,0,0,0,242,324.29Z"/><path class="cls-31" d="M242,323.78q-.32,8.6-.64,17.24l-.51,12.89c-2.11-.19-4.24-.73-4.85-2.17-1-2.43,3-5.7,2-7-.63-.87-2.69.1-7.15.76-3.87.58-8,.69-8,.26s4-1.83,7.91-2.68,5.49-.69,6.13-1.92-.49-2-1.15-6.12c-.42-2.6-.14-3.3-.76-3.71-1.58-1-6,1.64-6.26,4.34-.07.83.3,1.14.13,2.05-.26,1.39-1.39,2.05-2.81,3.19-3.16,2.52-2.82,3.4-6.13,5.74-1,.71-2.68,1.9-3.06,1.53-.57-.54,2.79-3.51,2.93-8,.08-2.27-.68-4.35-1.14-4.34s-.4,1.33-1.41,3.45c-.78,1.65-1.28,2.69-2.3,2.93a2.84,2.84,0,0,1-3.06-1.65c-.34-1,.3-1.85,0-2.05-.46-.3-1.92,1.94-2.68,1.66s-.08-3.82.25-9.06c.32-5-.18-5.47.26-8.94a38.15,38.15,0,0,1,2.3-8.68c3.52-10.16,1.39-11.23,4.85-22.21,1.58-5,2.66-6.84,4.34-13.28,1.2-4.63,2.39-9.29,1.28-9.83s-4,2.3-5.37,5.62c-1.21,2.92-.45,4.46-1.78,5.49-2.17,1.66-5.7-1.23-7.15.25-.6.61-.45,1.55.64,6.64,1,4.58,1.34,6.11,1.27,6.13s-2.27-7.81-5.74-18.38a118.43,118.43,0,0,1-3.83-13.66c-.35-1.65-.6-3-.77-4,0-11.16.19-20.28.39-26.55.48-15.65,1.07-20,.63-30.77a134,134,0,0,0-2.81-24.13,121.5,121.5,0,0,0-3.95-14,58.42,58.42,0,0,1,18.89,13.92c7.18,8,6.81,12.47,14.55,21.06,8.44,9.36,12.89,8.55,18,14.81,4.69,5.72,9,16.23,4.73,37.15-2,8.89-3.73,18.48-5.11,28.72A344.47,344.47,0,0,0,242,323.78Z"/><path class="cls-32" d="M194.6,160.63a31.92,31.92,0,0,1,3.7,7.79,31.6,31.6,0,0,1,1.4,11.36l.63,55v.49c1.57-9,1.57-14.62,1.15-18.25-.18-1.56-.67-4.81,1.15-6.51,1.08-1,2.39-.92,4.08-2.68,1-1.08,1.17-1.76,1.79-1.79,1.2-.05,2.26,2.47,2.94,4.08,1.26,3,.7,3.53,1.66,4.6,1.57,1.77,3.38.7,5.36,2.55a5.45,5.45,0,0,1,1.79,4.6c-.47,2.61-3.53,3.86-4.09,4.08-3.39,1.39-5.11-.56-7.4,1a6.31,6.31,0,0,0-2.56,5c0,1.38.64,1.71.39,2.94-.38,1.84-2,2.27-1.79,3.45s1.89,1.82,2.17,1.91c2.15.76,3.78-.58,4.21,0s-1.13,3.68-3.83,5.36c-1.51.95-2.62,1-2.81,1.92s.87,2.23,2,2.68c1.5.58,3-.2,4.08-.77,3.61-1.91,3.22-4.15,5.75-5.1,2.93-1.12,5,1.33,6.76,0,2-1.49.71-5.46,1.79-5.75.86-.22,2.72,2,3.19,4.47.39,2-.39,3.13.51,5,.59,1.21,1.31,1.52,1.15,2-.4,1.33-5.45.76-5.49,1.18s2.54.88,7,2.14a6,6,0,0,1,2.81,1.28c1.13,1.07,2,3.1,1.4,4.59-1,2.39-4.94,1.05-6.89,3.71-1.22,1.65-.38,3.13-.64,6.89-.25,3.61-1.26,5.72-2.3,8.68-2.9,8.32-1.62,10.9-3.83,17.87-3.86,12.2-12.23,18.33-10.72,19.92,1.11,1.16,6.26-1.47,6.64-1.66a19.11,19.11,0,0,0,3.06-2c2.58-2,4.86-3.79,6.13-6.64,1.42-3.2.16-4.59,1.79-6.26,1.92-2,4.92-1.33,5.1-2.42s-2.58-1.45-3.82-4.09c-.61-1.28-1-3.36,0-4.59,1.12-1.43,3.19-.7,3.7-1.79.69-1.49-2.84-3.59-2.3-5,.66-1.7,7.21-1.83,8.42.64.2.4.34,1-2.17,7-1.44,3.46-1.58,3.46-1.65,4.21-.44,4.09,3.15,6.81,2.17,8-.78,1-3.06-.63-4.47.64-.48.43-.46.83-1.15,4.34-.52,2.65-.59,2.75-.51,3.07.65,2.65,7.46,3.1,9.32,3.19a245.39,245.39,0,0,1,1.91-32.81c.66-5.14.71-4.19,3.45-21.57,2.05-13,2.66-17.59,4.72-30.26,5-30.78,3-13.78,4.34-22.72.77-5.29,1.65-12.55,7-19a28.17,28.17,0,0,1,2.56-2.69,7.18,7.18,0,0,1-1.54-3.06,7.32,7.32,0,0,1,1.15-5.62c.65-.83.85-.59,1.41-1.27,2.32-2.86-.69-7.6,1.4-9.32.53-.44.79-.19,1.28-.64,1.42-1.32.47-4.65-.64-7.4a45.12,45.12,0,0,1-7.15,6.38c-2.75,2-6.19,4-6.38,3.7s.81-.92,2-2c4.09-3.73,4.53-4.82,8.3-8.43,1.32-1.26,3.34-3.11,6-5.23-2.22.25-3.15-.09-3.45-.64-.86-1.62,3-6.65,5.75-5.87.32.09,1.29.45,2,2.17a9.08,9.08,0,0,1,5-2.94c.76-.13,1.62-.15,2-.76.53-.78,0-2.06-.51-3.07a42.62,42.62,0,0,0-17,5.87c-7,4.32-8.32,8.24-16.08,11A44.35,44.35,0,0,1,238,159.23c-3.87.21-4.94-.38-8.3.38a21.63,21.63,0,0,0-8.42,4,20.94,20.94,0,0,0-3.58,3.57c.17,0,2.86-.88,4.73.77,2,1.8,1.78,5.42.63,6-.92.46-2.22-1.16-4.85-3.19-3.06-2.37-5.91-3.58-11.61-6A87.14,87.14,0,0,0,194.6,160.63Z"/><circle class="cls-33" cx="619.87" cy="334.85" r="4.04"/><circle class="cls-33" cx="633.57" cy="331.7" r="3.79"/><circle class="cls-33" cx="647.17" cy="327.76" r="3.94"/><circle class="cls-33" cx="661.87" cy="324.25" r="4"/><circle class="cls-33" cx="674.6" cy="320.97" r="3.28"/><circle class="cls-33" cx="688.77" cy="319.65" r="3.66"/><circle class="cls-34" cx="621.55" cy="336.53" r="1.68"/><circle class="cls-34" cx="635.47" cy="332.7" r="1.89"/><circle class="cls-34" cx="648.43" cy="328.85" r="1.96"/><circle class="cls-34" cx="663.84" cy="325.79" r="1.97"/><circle class="cls-34" cx="676.23" cy="321.89" r="1.64"/><circle class="cls-34" cx="689.91" cy="321.74" r="2.09"/><path class="cls-35" d="M193,526.55c3.37-1.78,7.06-3.56,11.07-5.28,3.67-1.58,7.21-2.93,10.55-4.08a32.8,32.8,0,0,0,5.1-4.09c.83-.81,1.57-1.61,2.22-2.38l2.72,3.57.85,5.79q3.94,7.24,7.83,15.15,2.41,4.92,4.6,9.7c.39,1.59.79,3.18,1.19,4.77-1.61.78-4.23,2-7.49,3.57-5.88,2.76-7.79,3.6-10.89,5.28a53.82,53.82,0,0,0-7.32,4.76L210.72,562l-13.61-29.61Z"/><path class="cls-36" d="M199.32,523.82l-5.38,3.37a64,64,0,0,1,4.7,7c3.43,6,4.3,9.77,7.15,16.34a111,111,0,0,0,6.12,12l1.88-.94c-1.87-4.77-3.58-8.55-4.77-11.06a132.32,132.32,0,0,0-7-13.62c-1.81-2.94-2.6-6.5-4.76-9.19-.28-.34-1.11-1.3-.85-2.21C196.73,524.43,198.44,524,199.32,523.82Z"/><path class="cls-36" d="M216.49,518l-7.13,1.93c-1.89,2.84-2,3.78-1.7,4.08.46.48,2.14-.38,2.38-.51,1.63-.84,1.75-1.74,2.9-2.21,1.53-.62,3.73,0,3.91.85.37,1.67-7.32,4.2-7,5.28.23.71,3.77.25,4.43.17,2.76-.36,4.3-1.1,4.42-.85.29.58-8.13,5.17-7.83,5.79.12.23,1.45-.33,4.26-.86,2.15-.4,4.38-.82,4.59-.34s-.84,1.52-6.63,4.94l4.76.34a3.11,3.11,0,0,1,3.41-1,2.2,2.2,0,0,1,1.19,1.7c.11,1.67-2.59,3.51-6.64,4.77l.34,2.38a10.52,10.52,0,0,1,4.43-2.55c1.32-.37,3.59-.71,3.91,0s-1.11,1.91-2.55,3.23c-2.17,2-3.18,2.26-3.24,3.24a2.56,2.56,0,0,0,2.22,2.38c.87,0,1.17-.75,2.89-2,.55-.42,2.93-2.21,3.57-1.71s-1.3,3-.51,4.26c.52.84,2.21,1.23,6.64.17a120.39,120.39,0,0,0-6.3-15.49A122.3,122.3,0,0,0,216.49,518Z"/><path class="cls-37" d="M222.13,514.12c0,1,1.87,9,1.87,9l8.17,16.34,2.89,8.17v3.24l2.39-4.26-14.3-32.51Z"/><path class="cls-38" d="M600,346.46l-17,7.32c-23.49,10.15-34.3,15-56.68,24.68l-9.87,4.26c5.38-3.4,10.57-4.23,12.59-2.21a5.83,5.83,0,0,1,1.19,2c1.07,3.07-1,5-.34,6.3,1.22,2.49,10.62-.08,19.58-1.37a102.85,102.85,0,0,1,16.68-1l44.76-18Z"/><polygon class="cls-37" points="335.92 460.38 349.32 491.27 351.36 491.27 337.32 459.61 335.92 460.38"/><polygon class="cls-39" points="342.68 457.44 355.96 487.82 357.49 487.82 343.64 456.68 342.68 457.44"/><polygon class="cls-37" points="350.08 454.38 363.23 484.89 365.66 484.89 351.36 453.61 350.08 454.38"/><polygon class="cls-37" points="357.49 451.82 371.02 480.8 372.68 480.8 359.02 451.82 357.49 451.82"/><polygon class="cls-37" points="366.3 448.89 379.83 477.1 381.75 477.1 372.68 458.66 367.06 447.23 366.3 448.12 366.3 448.89"/><polygon class="cls-37" points="374.85 444.04 388.13 473.4 390.17 473.4 376.13 443.14 374.85 444.04"/><path class="cls-37" d="M384,440.21l12.94,28.08s1.91.9,1.91,1v-2.36l-13.79-27.83Z"/><polygon class="cls-37" points="392.98 435.74 398.85 448.5 405.75 464.33 408.3 464.33 394.13 434.72 392.98 435.74"/><path class="cls-37" d="M402.55,431.53s3.83,7,4.09,7.53,9.06,20.55,9.06,20.55h2.56L409.83,442,404,430.76Z"/><polygon class="cls-37" points="414.04 426.29 427.32 454.89 428.47 454.15 415.45 426.29 414.04 426.29"/><polygon class="cls-37" points="425.4 421.7 429.87 429.61 438.81 449.53 439.57 448.25 427.19 421.7 425.4 421.7"/><polygon class="cls-37" points="436.77 416.08 450.55 444.29 452.08 443.14 438.04 415.31 436.77 416.08"/><polygon class="cls-37" points="450.55 410.46 462.68 437.78 464.21 436.76 452.08 409.57 450.55 410.46"/><polygon class="cls-37" points="462.3 405.1 464.85 407.91 475.19 431.78 476.85 431.78 465.62 407.02 462.94 404.33 462.3 405.1"/><polygon class="cls-37" points="476.85 398.59 479.79 403.44 489.11 425.14 490.25 425.14 480.81 402.42 477.75 397.7 476.85 398.59"/><polygon class="cls-37" points="491.79 392.33 495.62 399.23 503.66 418.06 504.94 417.48 498.36 402.68 494.47 394.5 492.81 391.57 491.79 392.33"/><polygon class="cls-37" points="507.49 386.21 513.87 398.21 518.72 410.21 520.25 410.21 508.51 385.19 507.49 386.21"/><path class="cls-37" d="M524.34,378.42l4.85,8.94,6.26,14.55s3.44,2.94,1.91,0-12.25-24.13-12.25-24.13Z"/><polygon class="cls-37" points="540.94 370.76 543.49 375.87 552.43 390.5 542.98 371.4 542.21 370 540.94 370.76"/><polygon class="cls-37" points="579.87 353.91 586.51 367.57 590.85 377.78 592.13 377.14 581.02 353.91 579.87 353.91"/><path class="cls-40" d="M600.94,344.59c-.16.11,2.16,3,5,8.17a60.51,60.51,0,0,1,3.71,8,52.28,52.28,0,0,1,1.91,6.64c.72.25,1.08.15,1.28,0,1.6-1.17-1.84-9-5.49-14.81C604.31,347.88,601.11,344.46,600.94,344.59Z"/><path class="cls-41" d="M250.89,499.48l-13.44,7,1.36,2.73,14.64,31.32,13.78-6Q259.07,517,250.89,499.48ZM257.14,531c-6.44,0-6.43-10,0-10S263.58,531,257.14,531Z"/><circle class="cls-42" cx="247.15" cy="511.91" r="1.36"/><circle class="cls-42" cx="249.87" cy="517.36" r="1.36"/><circle class="cls-42" cx="256.93" cy="535.4" r="1.76"/><polygon class="cls-43" points="208.85 522.46 602.21 347.48 618.74 338.72 601.19 346.12 208 521.61 208.85 522.46"/><polygon class="cls-43" points="213.28 527.91 605.45 350.38 633.53 334.85 604.77 348.85 212.43 526.89 213.28 527.91"/><polygon class="cls-43" points="214.98 534.38 607.83 353.95 648.68 330.8 606.81 353.27 214.98 533.36 214.98 534.38"/><path class="cls-43" d="M612.43,356,256.71,521c.14,0,.28,0,.43,0a5,5,0,0,1,1.39.19L612.6,357,662,327.57Z"/><path class="cls-43" d="M253.63,522.41l-36.44,16.9.68.68,34.86-16.15A4.94,4.94,0,0,1,253.63,522.41Z"/><path class="cls-43" d="M261.81,527.32l9.89-4.68a6,6,0,0,1-.36-1L262,526.07A5.86,5.86,0,0,1,261.81,527.32Z"/><path class="cls-43" d="M254,529.85l-33.71,15.93V547L255,530.53A4.4,4.4,0,0,1,254,529.85Z"/><path class="cls-43" d="M609.53,361.78,280.1,517.49a5,5,0,0,1,.44,1l329.84-156,64.17-37.1Z"/><polygon class="cls-43" points="222.81 552.93 611.57 366.38 690.21 320.59 611.23 365.19 222.81 551.91 222.81 552.93"/><circle class="cls-44" cx="362.3" cy="468.42" r="1.62"/><circle class="cls-44" cx="378.64" cy="460.93" r="1.45"/><circle class="cls-44" cx="395.91" cy="452.51" r="1.53"/><circle class="cls-44" cx="422.6" cy="428.12" r="1.66"/><circle class="cls-44" cx="431.62" cy="448.89" r="1.66"/><circle class="cls-44" cx="464.04" cy="421.91" r="1.57"/><circle class="cls-44" cx="491.4" cy="408.59" r="1.7"/><circle class="cls-44" cx="523.02" cy="394.59" r="1.66"/><path class="cls-45" d="M174.81,462.21c.65,1-3.14,3.56-7,9-.84,1.19-2.21,3.75-4.94,8.85-3.37,6.3-3.15,6.21-4.93,9.36-3.59,6.33-3.73,5.4-6.13,10-.79,1.53-2.37,4.72-4.94,8.86-2.08,3.35-2.51,3.62-2.89,3.57-1.79-.25-3.23-8.1-.85-15.15.16-.49.26-.71,2.72-5.45,5.89-11.32,2.1-3.79,8-14.63a22.4,22.4,0,0,1,4.94-6.64c.46-.42,1.22-1,2.72-2.05,6.1-4.38,8-5.31,10.21-5.78C173,461.94,174.45,461.63,174.81,462.21Z"/><path class="cls-46" d="M161.36,471.4c.79.54-4.3,9.31-5.62,11.57-3.27,5.64-6.12,10.22-6.12,10.22-1.85,2.95-3.5,5.48-4.26,9.36a14.77,14.77,0,0,1-.51,2.72c-.34,0-1.43-5.22,0-10.38.84-3,1.53-2.39,6.13-10,2.46-4.11,3.69-6.67,6.81-10.22C158.63,473.67,160.9,471.09,161.36,471.4Z"/><path class="cls-47" d="M290.55,422a51.41,51.41,0,0,1-5.15,3.06l-1.14.51c-4.31,1.84-7.85,2-7.83,2.21s4.71,1,9.19-1.36C288.83,424.79,290.67,422.18,290.55,422Z"/><path class="cls-48" d="M381.45,521.1a62.16,62.16,0,0,0,10.72-1.53c4.63-1.11,6.1-2.1,10-2.21,2.61-.08,5.44-.11,7.32,1.87a6.91,6.91,0,0,1,1.7,4.59,9.76,9.76,0,0,0-4.59-5.1c-3.18-1.45-5.85.13-12.26,1.36A49.38,49.38,0,0,1,381.45,521.1Z"/><path class="cls-46" d="M360.17,497.1c-.26,0-1.23,4.28,0,9,.9,3.45,2.68,6,2.89,6s-1.14-2.7-2-7C360,500.26,360.39,497.11,360.17,497.1Z"/><path class="cls-49" d="M362,507.82a16.66,16.66,0,0,0,3.58,5.11,18.6,18.6,0,0,0,8.34,4.6,22,22,0,0,0,10.55,0,34.27,34.27,0,0,0,9-3.41,55.61,55.61,0,0,0,8.34-5.1,48.8,48.8,0,0,1-12.93,3.74c-4.49.64-10.63,1.45-17.37-1.19a17.65,17.65,0,0,1-8.85-7c-1.3-2.16-1.74-4.21-2.05-4.13S360.45,504.3,362,507.82Z"/><path class="cls-24" d="M361.53,210l11.58,72.19,3.57,22.28a50,50,0,0,0,11.92-.68,51.19,51.19,0,0,0,9.19-2.55c-1.59-3.59-7-14.61-18.22-17.88a23.31,23.31,0,0,0-4.76-.85l-12.6-80.59a12,12,0,0,0-.8,2.15A11.57,11.57,0,0,0,361.53,210Z"/><path class="cls-50" d="M363.87,199.7,380.6,304.59c3.29-.27,6.82-.7,10.55-1.36,2.2-.39,4.31-.83,6.31-1.3-1.16-22-3.26-45.46-6.65-70.19q-3.06-22.26-7-42.72Z"/><path class="cls-51" d="M365.45,208.08q4.5,29.79,9,59.57c1.87,8.48,5.09,13.73,7.83,17,2.09,2.51,5.5,5.82,8.51,11.91,1.51,3.07,1.77,4.48,2,4.43,1.36-.29,1.71-35.93-11.74-56.68-1.4-2.16-6.61-9.8-8.51-19.75a66.82,66.82,0,0,1-1-10.55,59.11,59.11,0,0,1,.86-10.39Z"/><path class="cls-52" d="M381.2,252.39c-1.2.83-1.3,2-1.28,3.29a.44.44,0,0,0,.08-.17q.51-3.85,3.45-3.65a5.21,5.21,0,0,1,.79.13A3.25,3.25,0,0,0,381.2,252.39Z"/><path class="cls-52" d="M386.9,253.81a3.55,3.55,0,0,1,.23.31s.07,0,0,0Z"/><path class="cls-52" d="M384.24,252a7.36,7.36,0,0,1,2.66,1.82A4.79,4.79,0,0,0,384.24,252Z"/><path class="cls-52" d="M384.68,260.61c.17.54-.17,1.24,0,1.8,1.29,4.16,3.57,8.7,2.13,13.19-.14.45.06,1-.11,1.47C389,271.57,386.33,266,384.68,260.61Z"/><path class="cls-52" d="M387.69,295.75a3.84,3.84,0,0,0-2.16-1.19.35.35,0,0,0,.1.13c3.74,1.11,2.67,5.33-.22,4.92a2.26,2.26,0,0,1-1.73-1.08c-1.52-2.68.42-7.27,3.69-7.79,0,0,0,0,0,0a4.48,4.48,0,0,0-3.79,3.05c-.86,2.1-1,5.69,1.46,6.89a2.5,2.5,0,0,0,3.37-1.43A3.44,3.44,0,0,0,387.69,295.75Z"/><path class="cls-52" d="M392,284.47A84,84,0,0,1,378.84,282c.32.08.35,1.62.72,1.7a92.28,92.28,0,0,0,13.3,2.42C392.53,286.08,392.39,284.52,392,284.47Z"/><path class="cls-52" d="M386,287.28a16.33,16.33,0,0,1-4.63-.37,15.76,15.76,0,0,1-4.5-1.28c.34.11.26,1.6.64,1.73a24,24,0,0,0,9.4,1.56C386.59,288.92,386.31,287.29,386,287.28Z"/><path class="cls-52" d="M380.91,291.1l-3.25-.22c.28,0,.5,1.62.84,1.64l3.42.16C381.58,292.66,381.3,291.13,380.91,291.1Z"/><path class="cls-52" d="M391.91,273.05a5.07,5.07,0,0,0-2.93-2.23c-.06,0,.07.09.09.1,3.65,1.45,3.95,5,1.77,7.34a5.7,5.7,0,0,1-5.34,1.59,5.19,5.19,0,0,1-3.67-2.18,14.92,14.92,0,0,1,2.12-7.14,4.32,4.32,0,0,0,.34-1.48c.08-.35.09-1,.13-1.21-.57,2.8-2.83,5.11-3.24,8a4.59,4.59,0,0,0,.5,2.93,5.92,5.92,0,0,0,6,2.93,5.25,5.25,0,0,0,4.87-4.06A5.71,5.71,0,0,0,391.91,273.05Z"/><path class="cls-52" d="M382.74,263.72c-.12-.7-.25-1.4-.38-2.1a12.54,12.54,0,0,1-.18-6.2c0,.14-.18.57-.22.81a15.78,15.78,0,0,0-.14,4.28c.12.74.25,1.48.37,2.21a8.08,8.08,0,0,1-.82,8,20.88,20.88,0,0,1-2.68,5.76l-1,2.18c0,.12-.07.25-.11.37a5.14,5.14,0,0,0-.34,2.43,2.36,2.36,0,0,0,1.17,1.68l.94.21a1.19,1.19,0,0,0,1.21-1.27c.11-.26-.53-.86-.43-1.07-.33.67-.84,1.16-1.7.86-2.19-.75-.22-4.16.67-5.61,1.41-2.29,3.16-4.51,3.65-7.22a10.64,10.64,0,0,0,.12-1.12A17.18,17.18,0,0,0,382.74,263.72Z"/><path class="cls-52" d="M396.25,295.45c0-.18-.39-.31-.42-.46a4.43,4.43,0,0,1,.06.51l-.09-.2c-1-1.93-4.11-2.5-5.07,0a2.82,2.82,0,0,0,.16,2.28c-1.4-1.21-2.1-3.38-.76-5a25.07,25.07,0,0,0,2.24-2.65,12.75,12.75,0,0,0,1.65-4.92,20.29,20.29,0,0,0,.13-3.82c-.41-8.6-4.92-16.32-8.46-24,.23.51-.09,1.3.16,1.82q2.53,5.37,5,10.76a26,26,0,0,1,1.63,18.71c-.79,1.53-2,2.58-2.8,4a5.8,5.8,0,0,0-.61,1.65c-.39,2.09,1,4.4,2.71,5.55a2.47,2.47,0,0,0,3.75-.66C396.49,298.23,396.5,296.68,396.25,295.45Zm-4.8.85c-.59-1.24-.31-2,.84-2.35l1.09-.18,2.31,2.48a2.13,2.13,0,0,1-.67,1.36,2.49,2.49,0,0,1-2.34.87,3.67,3.67,0,0,1-1.18-.44A1.82,1.82,0,0,1,391.45,296.3Z"/><path class="cls-52" d="M385,300.14c-.5,1.52-1.34,3.7-3.36,3.38-2.68-.44-3.93-5.67-1.12-6.93,0,0,.05-.07,0,0-2.14,1-2,3.58-1.19,5.54a4.44,4.44,0,0,0,2.5,2.74c2.48.83,3.31-2.27,3.75-4C385.61,300.64,384.94,300.26,385,300.14Z"/><path class="cls-52" d="M381,264a20.3,20.3,0,0,0-1.55-6.53c.21.54,0,1.27.18,1.82,1.94,5,1.25,8.22-1,12.14a20,20,0,0,0-2.3,4.68,15.4,15.4,0,0,0-.33,2.49c0-.16.16-.63.18-.9.39-3.5,3.16-5.32,4.21-8.45A13.91,13.91,0,0,0,381,264Z"/><path class="cls-52" d="M391.27,263.49a49.23,49.23,0,0,1-5.94-8.66c.26.48-.11,1.32.17,1.82a47.5,47.5,0,0,0,6.08,8.68C391.24,264.94,391.62,263.91,391.27,263.49Z"/><path class="cls-53" d="M385.93,240.3a8,8,0,0,0-3.06-2.78,9.29,9.29,0,0,0-2.66-.94,4.69,4.69,0,0,0,.1-.6v-.1h0c0-.22,0-.45,0-.67a4.78,4.78,0,0,1,.35-2.54,3,3,0,0,1,.86-3.1c1.59-1.8,3.15-3,4-5.25.1-.24.12-.75.18-.89-1.2,3.12-4.14,4.91-5.51,7.84a6.43,6.43,0,0,0-.54,1.64c-.26,1.74.28,1.75.39,3.27a1.38,1.38,0,0,1-.32.32,8.42,8.42,0,0,0-1-.09s-.13.21-.11.24c.39.6,1.06,1,1.45.2.21.07.45.15.75.27a11.93,11.93,0,0,1,5.28,4.28C386,241.15,386.15,240.56,385.93,240.3Zm-6.53-3.62c-.26.06-.34,0,0,0Z"/><path class="cls-53" d="M387,235.44a5.76,5.76,0,0,0-.35-1.5l-.05-.21a.28.28,0,0,1,0,.09,8.67,8.67,0,0,0-1.85-2.74c.35.37,0,1.43.42,1.8a5.79,5.79,0,0,1,1.4,1.68,1.79,1.79,0,0,1-1.15,1.67c-.86.24-1.49-.11-1.61-1.22,0,0,0-.17,0,0a2,2,0,0,0,1.64,2.1C386.78,237.49,387.15,236.71,387,235.44Z"/><path class="cls-53" d="M390.51,254.89c-1.26-4.13-3.45-7.33-7.47-9.31a55.27,55.27,0,0,1-6-2.82q-3.27-1.47,1.73-4.67a5,5,0,0,1-.58,2c0,.07.58.35.57.37.66-1.77.82-4.13-1.49-4.63a2.57,2.57,0,0,0-2.87,1.53,4.57,4.57,0,0,0,.6,4.08c1.61,2.61,4.9,3.8,7.49,5.14a18.53,18.53,0,0,1,4.79,3.26,13.56,13.56,0,0,1,3.57,6.75C390.73,256.3,390.66,255.37,390.51,254.89Z"/><path class="cls-53" d="M377.83,247.86l-6,2.29c.13-.05.9,1.52,1.08,1.45l6-2.33C378.81,249.33,378,247.78,377.83,247.86Z"/><path class="cls-53" d="M380.05,250.32a9.76,9.76,0,0,0-3.39,5.31c-.68,2.64-.39,5.39-.49,8.07,0,.3-.1,5.61-1.61,4,.28.29-.14,1.6.22,1.82a1.17,1.17,0,0,0,1.47-.1c.94-.79.47-4.82.47-5.07-.06-2.77-.43-5.71.35-8.42l.74-2.11a7,7,0,0,1,2.8-3.16S380.12,250.26,380.05,250.32Z"/><path class="cls-53" d="M383.3,215.46a10.68,10.68,0,0,1-4.09-3.17c-2.21-2.9-3.73-6.46-5.37-9.64.26.49-.07,1.31.19,1.82,1.43,2.72,3.25,7.14,5.44,9.66a12.13,12.13,0,0,0,4.28,3.14C383.42,217.11,383.68,215.65,383.3,215.46Z"/><path class="cls-53" d="M381.72,204.19c-1.18-1.14-2.82-1.31-3.35.59,0,0,.28.11.29.08.32-1.91,1.54-1.47,3.66,1.3a8.84,8.84,0,0,1-.75,3.36c-.09.28.27.76.17,1C382.6,208.53,383.54,205.94,381.72,204.19Z"/><path class="cls-53" d="M382,220.83l-.09-.38-.05-.32a.43.43,0,0,1,0,.05,5.47,5.47,0,0,0-1-2.1,22,22,0,0,0-3-2.72,20.85,20.85,0,0,1-5.1-7.23c.24.49-.14,1.3.1,1.81a19.33,19.33,0,0,0,5.24,7.24c1.52,1.24,2.81,2.08,3.68,3.8a8.54,8.54,0,0,1-1.44,3.68c-.64.9-1.43,1.7-2,2.65a7.06,7.06,0,0,0-.82,1.76,7.84,7.84,0,0,0-.35,1.68,4.68,4.68,0,0,0,1.62,3.69c-.2-.22.28-1.19,0-1.41q-2-1.08-.25-3.38a3.56,3.56,0,0,1,1.73-3.61,6.39,6.39,0,0,0,1.74-2.51A4.86,4.86,0,0,0,382,220.83Z"/><path class="cls-53" d="M378.3,223.39v0s0-.07,0-.11a7.74,7.74,0,0,0-.63-2.64,8.44,8.44,0,0,0-2.45-2.31c-3.19-2.58-4.84-5.75-6.07-9.58.17.53-.19,1.24,0,1.79a18.3,18.3,0,0,0,5.25,8.63c1.23,1.09,2.68,1.86,3.48,3.26-.78,3.55-4.48,5.86-5.57,9.35-.57,1.81-.35,4.66,2.09,4.93,1.69.18,2.43-1.67,1.78-3l.09.09-.14-.2a.84.84,0,0,0-.06-.14,1.32,1.32,0,0,0-2.32-.26s0,.2,0,.18c.55-.86,1.26-.85,2.12,0,.14,2.09-2.47,2.49-3.45.73a12.61,12.61,0,0,1,4.41-8.14,2,2,0,0,0,1-1,2.75,2.75,0,0,0,.48-1.54Z"/><path class="cls-53" d="M371.39,227.32a18.93,18.93,0,0,0-1,3.12,18.71,18.71,0,0,0-.28,2.81c-.28,5.25,3.29,9.66,6.45,13.44-.31-.37.14-1.41-.18-1.81-3.63-4.46-8-9.64-4.91-15.88a10,10,0,0,0,1.38-5.76l.12.54-.14-.68a9,9,0,0,0-.2-1.17c0-.08-.06-.15-.08-.23l-.37-1.33c.05.2.09.39.14.59-1.06-2.92-3.38-4.8-6-6.66.37.26.11,1.48.52,1.77a26.3,26.3,0,0,1,3.41,2.61,9,9,0,0,1,2.24,3c0,.2.08.39.13.58A18.25,18.25,0,0,1,371.39,227.32Z"/><path class="cls-54" d="M376.85,308.16l-1.7,6.3c.45,3.53,1.17,8.2,2.38,13.62a115.66,115.66,0,0,0,3.41,12.6,73.92,73.92,0,0,0,7.66,16.85,39.45,39.45,0,0,0,4.93,6.63c2.7,2.89,7.78,8.11,9.19,7.15.33-.22.56-.83.17-2.55l-5.78-5.52c-.11-2.24-.22-5.58-.17-9.63.09-8.57.78-10.35,1.53-21.79.8-12.11.54-18-.17-23.48-.24-1.88-.5-3.41-.68-4.43Z"/><path class="cls-55" d="M396.26,307.82l-7.17.88L378.21,310v6.81a7.88,7.88,0,0,1,3.07-4.6c2.82-1.89,5.66-.39,10.21-1.87A15.76,15.76,0,0,0,396.26,307.82Z"/><path class="cls-55" d="M395.4,313.27l-13.95,4.6.51,12.25a26.17,26.17,0,0,1,6.3,7.15c2.91,4.93,3.65,10.13,4.25,14.3.74,5.14.13,5.68,1.19,8.17,2.26,5.26,7.28,8.21,7.49,8s-.83-1-2.72-3.58c0,0-1.61-2.21-2.73-4.08-2.43-4.07.74-10,1.54-19.06.23-2.65-.08-6.82-.68-15.15C396.22,320.71,395.77,316.4,395.4,313.27Z"/><path class="cls-56" d="M390.47,359.23c-.86,0-1.62,2.22-2,3.74a13.18,13.18,0,0,1,2.21,2.39,12.64,12.64,0,0,1,2,4.59c0-.49,0-1.19,0-2a36.63,36.63,0,0,0-.17-3.75C392.28,362.32,391.46,359.26,390.47,359.23Z"/><path class="cls-57" d="M200,199.57c-.72,0-2,37.31-2.56,62.47-.51,22.52-.77,34.86-.3,52.08.78,28.27,2.44,29.83,2.07,44.25a54.48,54.48,0,0,0,.79,12c1.31,7.19,3.95,13,6.89,19.4,1.72,3.76,3.14,6.86,3.53,6.73s-.46-4.88-6.47-24.52c-2.19-17.36-3.83-36.5-4.42-57.19-.56-19.61-.1-37.89,1-54.59C200.7,210.11,200.34,199.58,200,199.57Z"/><path class="cls-3" d="M199.57,212.34c-.4,0,.49,14.41,0,42.12-.3,17.48-.81,21-.76,35.49.07,18.58,1,33.71,1.28,33.7s-.26-14.82.51-38.29c.42-13.13.75-13.5,1-22.47C202.43,235.3,200.08,212.32,199.57,212.34Z"/><path class="cls-58" d="M420.94,247.4c-.68.28-.85,3.36,1,4.59.75.5,2,.82,2.38.35C425.08,251.36,421.86,247,420.94,247.4Z"/><path class="cls-58" d="M424.68,258.46a13.81,13.81,0,0,0,.68,6.3c.26.71.76,2.07,1.36,2s1.09-1.42,1.19-2.38C428.22,261.59,425.58,259.21,424.68,258.46Z"/><path class="cls-59" d="M390.81,200.93c-.53.28,1.35,4.21,3.06,9.87a80.8,80.8,0,0,1,3.24,17.36,12.21,12.21,0,0,1,7.32.18c1.44.53,2.58,1.33,3.4.85s.87-2.28.68-3.75c4.52,6,8.58,8.2,11.58,9,2.3.64,6.48,1.16,8.34,4.26.44.74.75,1.62,1.7,2,1.8.81,4.85-.48,4.93-2,.06-1.07-1.28-2-1.7-2.21a32.23,32.23,0,0,1-8-1.71,33.43,33.43,0,0,1-5.79-2.72,66,66,0,0,1-14.12-11.92C396,209.41,391.61,200.51,390.81,200.93Z"/><path class="cls-59" d="M388.09,185.27c2.88,3.45,5.86,7.3,8.85,11.58s5.71,8.61,8,12.59q1.19-5.35,2.38-10.72l6.47-1.7q-1.47,2.35-2.9,5.1A75.77,75.77,0,0,0,406.3,213c-11.49-16.28-14.68-19.88-15.15-19.58-.73.47,3.8,11.31,11.57,19.41,1.87,1.94,3.82,3.62,7.66,7.83,3.5,3.83,3.85,4.59,6,6.29a20.68,20.68,0,0,0,10,4.94c2.82.44,4.3-1,5.45,0,1.83,1.62-.13,5.91,1,6.47s3.95-3.86,4.94-3.41c.59.28.58,2.36-1.7,9.71q-1.71,13.19-3.41,26.38,1.11,3.74,2.21,7.49c.63-11.56,1.66-21.12,2.56-28.09,1.07-8.33,2.21-15,3.57-23,1.49-8.73,2.88-16,3.92-21.27a4.17,4.17,0,0,0-3.07-3.75,4.05,4.05,0,0,0-3.4,1.19c-1.52,1.49-1.42,3.71-1.36,5.11s.32,1.72,1.19,5.11a42.34,42.34,0,0,1,1,4.42c.24,2.22.18,6.73-1.87,7.49-1.35.5-3-.81-3.24-1a6,6,0,0,1-1.87-3.4c-.38-1.37-.92-3.29,0-4.26s2.88-.11,3.23-.85-1.31-2.79-3.23-3.74c-.65-.33-1.08-.42-2.21-1s-1.79-1-2-1.53c-.5-1.08.46-1.9,0-2.72-.37-.64-1.17-.49-3.07-.85a25.78,25.78,0,0,1-5.28-1.7s-.77-4.35-2.21-12.43c-7.67-4.59-11.77-8.17-14.13-10.72a5.67,5.67,0,0,0-2-1.54C397.4,178.3,392.08,181.85,388.09,185.27Z"/><path class="cls-59" d="M404.13,179.14a50.2,50.2,0,0,1,19.4,10.9l-2.72,2.38a9.49,9.49,0,0,1,6.3.68,9.28,9.28,0,0,1,3.57,3.24c1.58,2.31,1.25,3.85,2,5.95,1.72,4.57,7.06,7.33,7.83,6.64.62-.55-1-4-9.23-15.15L421,184.93Z"/><path class="cls-59" d="M406.64,228.34c.49,6,1.18,11.33,1.87,15.65,1,6.28,2,10.48,3.58,17.54a72.33,72.33,0,0,0,2.55,9c1.45,4.06,3.62,8.88,4.25,8.68s-.6-3-.68-7.83c-.08-5.39,1.2-6.68.85-11.06a24.39,24.39,0,0,0-2-7.66C413,242.47,408.16,231.73,406.64,228.34Z"/><path class="cls-59" d="M415.15,286.38A32.47,32.47,0,0,1,417,297.44c0,5.09-1.38,8.54.85,11.41.75.95,1.39,1.2,3.24,3.4,2,2.35,2.47,3.53,2.89,3.4.73-.22-.2-3.91-.51-10-.24-4.75.17-5.5-.17-9.19a43.44,43.44,0,0,0-1.87-9.19Z"/><path class="cls-59" d="M428.77,330.46c-1.08,7.31-1.6,13.34-1.88,17.53-.31,4.83-.38,10.08-.51,20.6-.11,8.75-.16,13.12,0,16.34.35,6.82.89,8.85,1,15.49.15,7.52-.41,12.42-.34,12.43s1.92-17.25,2.39-39c.21-10.21.08-18.45,0-23C429.31,342.91,429,336,428.77,330.46Z"/><path class="cls-58" d="M423.49,213.7a2.29,2.29,0,0,1,2-.51c1.36.58,1.76,4.08.34,6.29s-4.18,2.22-4.25,3.41c0,.66.74,1.6,4.25,2.89q1.78-5.7,3.58-11.4c-.53-2.32-2-4-3.75-4.26-1.28-.18-3.21.37-3.4,1.53C422.13,212.66,423.35,213.6,423.49,213.7Z"/><path class="cls-58" d="M413.28,221.36c-1.55-1.16-1.83-1.74-1.71-2.05.19-.48,1.31-.18,2.05-.85s.71-1.92.51-3.06c1.08-2.38,2.15-4.77,3.23-7.15l7.32,7.32-7.66,1.7Q415.15,219.31,413.28,221.36Z"/><path class="cls-58" d="M429.62,196c.07-.26-.88-.52-3.07-2-1.71-1.19-1.81-1.49-2.55-1.7-2.09-.58-4.69.9-4.6,1.7,0,.19.22.49,3.41,1.19C424.21,195.45,429.44,196.6,429.62,196Z"/><path class="cls-58" d="M419.06,222.38c.82,3,2.26,3.72,2.73,3.91a13.75,13.75,0,0,0,2.63.58c1,.17,1.73.24,2,.27,1.11.15,2.74.86,4.94,3.41l-6-1.36a6.86,6.86,0,0,1-5.1-.85,7.28,7.28,0,0,1-3.07-6Z"/><path class="cls-60" d="M316.77,508.76a14.73,14.73,0,0,0,7.4-3.06,17.45,17.45,0,0,0,3.25-3c.48-.58,5-6,3.39-9.8-1.05-2.5-4.3-3.33-6.38-3.83-12-2.88-25.26,4.58-31.15,1-.36-.21-5.51-3.21-5.62-7.4-.14-5.32,7.86-11.1,20.6-13.82.32,1.13,3.47,12.1,9.53,13.05a3.44,3.44,0,0,0,2.55-.25c1.43-1,1.25-3.64,0-11.24-.9-5.47-1.35-8.2-1.61-8.61-3.29-5-15.38-3.07-34.9,1.72-29.24,7.18-40.68,12.31-45.45,7.15-1.65-1.79-2.76-5.07-1.27-11.49a91,91,0,0,0-11.75,12c-4.5,5.54-5.58,8.23-6.13,10.47a20.8,20.8,0,0,0,0,9.44c1.06.29,2.56.71,4.34,1.28a71.28,71.28,0,0,1,11.15,4.34,43.35,43.35,0,0,1,8.17,5.79A171.39,171.39,0,0,0,259.4,514c3.35,2.06,7.3,4.55,11.8,6.82-.24-2.66,1.36-5.52,4.8-5.52,5.15,0,6.17,6.37,3.1,8.94a49,49,0,0,0,17.75,3,47,47,0,0,0,11.66-1.77l8.29-2a57,57,0,0,0,7.94-7.26c.7-.77,1.36-1.55,2-2.31a6,6,0,0,0-3.32,1.27c-1.69,1.41-1.39,3.08-2.33,3.34-2.3.65-6.88-8.6-6.09-9.46C315.28,508.69,315.61,508.85,316.77,508.76Z"/><path class="cls-61" d="M229.7,468.68a13.09,13.09,0,0,0-3.32,6.63c-.24,1.44-.88,5.18,1.28,7.66,1.57,1.81,3.86,2.08,7.91,2.56,5.75.68,6.93-.56,8.94.76,3.16,2.07,1.32,5.81,4.34,8.17,3.36,2.63,7.35-.66,11.75,2.05,2.06,1.26,2.22,2.63,4.08,5.36,4.18,6.13,7.57,5.41,20.68,15.06,4.2,3.09,4.88,3.91,7.15,4.6s5.42.83,12,1a30.06,30.06,0,0,0,6.38-.26,33.64,33.64,0,0,0,5.62-1.53,60.21,60.21,0,0,0,6.5-2.63l-13.14,2.12,3.07-6.64c-5.95,1.61-10.86-.74-11.75-3.83-.65-2.26,1-4.6,1.53-5.36a50.27,50.27,0,0,0,10.73,1.28c6.52.05,8.08.07,9.19-1,1.71-1.69,2.31-5,1-6.39a2.62,2.62,0,0,0-2-.76c-1.22.09-1.94,1.13-2.56,1.78-3,3.15-9,3.12-13.7,1.91l-.34-.12c-7.22-2.66-14.88-14.62-11-23.32a14.91,14.91,0,0,1,5.7-6.21,15.68,15.68,0,0,1,9.37-2.64c3.29.23,4.37,1.55,6.11,1.66a3,3,0,0,0,1.29-.13c2.17-.67,3.65-3.69,3.32-6.12s-2.59-4-4.34-5.11a21.31,21.31,0,0,0-11.75-3.07c-12.05.43-25.05,9.13-33.7,12.26S248.27,473.69,229.7,468.68Z"/><path class="cls-62" d="M283.83,508.76c-1.56,3.8,1,7.43,1.53,8.17,1.23,1.64,2.27,1.9,10.48,5.13,6.12,2.4,7.36,3,9.22,2.37,2.19-.71,4.45-2.79,4.56-5.2.08-2-1.32-3.53-2.05-4.34-2.43-2.72-5-2.45-5.36-4.09-.41-2,3-3.86,2.56-4.59s-4.59,2.28-8.68,1c-2.7-.83-2.76-2.75-5.11-3.07C288.29,503.8,285,505.82,283.83,508.76Z"/><path class="cls-63" d="M238.64,458.46l-8.43,10a22.6,22.6,0,0,0,7.92,6.89c.91.47,2.46,1.18,14,3.83,4.57,1.05,5.53,1.22,7.15,2.05,3.82,1.95,5.09,4.53,7.4,6.89,2.79,2.85,6.46,4.11,13.79,6.64,9.18,3.16,15.77,5.43,24.51,5.1,6.07-.22,7.77-1.49,11.22-2.06a15.54,15.54,0,0,1,3.33-.14s.79,0,2.05-.09a10.34,10.34,0,0,0,6.12-2,7.67,7.67,0,0,0,2.56-4.59c.29-2.05-.51-3.57-2-6.64-1.13-2.24-2.11-4.21-3.07-4.09-1.17.16-.82,3.23-2.55,5.62-1.22,1.69-3.49,2.76-10.3,3-10.81.35-16.21.53-18.21-2.72-2.79-4.53.91-13.42,6.55-16.85,3.76-2.29,7.31-1.64,8.17-3.83.78-2-2.07-5.1-4.34-6.64-4.45-3-9.75-2.18-12-1.79-4.13.73-5.94,2.21-9.45,3.83a48.6,48.6,0,0,1-19.66,3.83,40.49,40.49,0,0,1-19.91-6.13Z"/><path class="cls-64" d="M309,511.58c6.37,1.83,9.31.8,10.82-.52,1-.88,1.37-1.89,4.34-5.36,2.41-2.83,2.86-3.06,3.25-3,1.37.33,2.17,4.87.84,8.58-1.59,4.44-5.78,6.48-7.19,7.17-5,2.47-10.23,1-13.5,1.26-1,.08-3.12.24-3.63-.74a3,3,0,0,1-.1-.37C303.28,515.6,307.75,512.43,309,511.58Z"/><path class="cls-65" d="M266,467.14c2.24,3,4.4,4,5.87,4.34,4.43,1.08,8.15-2,10.72,0,1.38,1.1,1,2.52,2.05,2.81,1.86.51,3.18-3.82,7.91-7.66,4.2-3.4,7.79-3.75,7.66-5.36-.11-1.32-2.63-2.27-4.34-2.55a10.83,10.83,0,0,0-6.64,1.27C285.5,461.9,278.64,464.23,266,467.14Z"/><path class="cls-66" d="M245.28,456.16c-.34-.63-6.92,1.47-12.77,5.62a37.12,37.12,0,0,0-12.25,14.81c-2.61,5.8-1,6.54-3.07,12.26-.16.45-.6,1.62-.05,2.36.9,1.22,3.79.44,4.65.19a28.24,28.24,0,0,1,1.27-14C228.44,463,245.83,457.21,245.28,456.16Z"/><path d="M327.61,508c-.13,2.71-.29,5.27-1.88,7.6a18.27,18.27,0,0,1-3.19,3.5c-3.52,3-8.21,4.61-12.29,6.65-1.94,1-3.75,2.29-5.92,2.73a17.84,17.84,0,0,1-7-.09c-5.35-1.06-10.39-3.54-15.58-5.16.36.11.32,1.58.72,1.71,4.79,1.48,9.38,3.6,14.24,4.86a17.28,17.28,0,0,0,8.51.32,35.07,35.07,0,0,0,6.08-2.85c3.83-1.93,7.87-3.5,11.36-6a12.82,12.82,0,0,0,4.12-4.51c1.33-2.61,1.45-5.37,1.47-8.24C328.23,508.34,327.6,508.16,327.61,508Z"/><path d="M269.86,519.6c-2.61-.93-5.07-2.06-7.6-3.18a21.38,21.38,0,0,1-7.12-4q-3.58-2.43-7-5c-4.55-3.36-9-6.8-13.76-9.91a68,68,0,0,0-7.05-4.26,50.4,50.4,0,0,0-10-4.08c.36.13.3,1.56.71,1.7a49.94,49.94,0,0,1,10,4.09l4.71,2.74c5.59,3.41,10.73,7.57,16,11.48q3.45,2.59,7,5a18,18,0,0,0,6,3.58c3,1.18,5.81,2.58,8.87,3.59C270.27,521.18,270.29,519.75,269.86,519.6Z"/><path d="M395.26,499.16a9.17,9.17,0,0,1-.3-4.59c0-.06-.43-.18-.44-.18a9.81,9.81,0,0,0,.22,4.34,6,6,0,0,1,0,3.6,3.35,3.35,0,0,1-2.07,2c-4.69,1.71-15.76,2.59-16.67,2.73.21,0,.7,1.61,1,1.57q7.53-.94,15-2.33a8,8,0,0,0,1.74-.46,3.15,3.15,0,0,0,2.09-2.26C396.14,502.09,395.63,500.63,395.26,499.16Z"/><path d="M323.47,478.13c-.05-.3-.7-.59-.7-.86a3,3,0,0,1-2.16,3.1c-2.43.73-4.58-1.53-6.05-3.1-1.76-1.86-3.52-3.23-6.17-3.35-1.33-.05-2.65.08-4,.15a10.68,10.68,0,0,1-4.73-.73c.33.12.2,1.63.57,1.76a11.26,11.26,0,0,0,3.85.75c1.38,0,2.77-.28,4.15-.31a8.64,8.64,0,0,1,3.87.61,10.53,10.53,0,0,1,3.16,2.86c1.36,1.6,3.23,3.53,5.53,3.16a3.75,3.75,0,0,0,2.05-1.07C323.84,480.13,323.72,479.49,323.47,478.13Z"/><path d="M242.27,455.36A43.93,43.93,0,0,0,218,480.24s.49.29.49.28a42.22,42.22,0,0,1,24.62-24.41C243,456.15,242.43,455.28,242.27,455.36Z"/><path d="M432.52,279.81l-.69,53.62c0-.22.15-.89.15-1.26l.69-53.61C432.67,278.79,432.52,279.45,432.52,279.81Z"/><path d="M432.25,322c.13-1.36.26-2.59.38-3.74-.17,1.59-.34,3.18-.53,4.77C432.07,323.39,432.23,322.19,432.25,322Z"/><path d="M434.43,273.44c0,.25-.15,1-.14,1.35a325.06,325.06,0,0,1-1.44,41.39c.65-6.31,1-10,1.38-18.35C434.68,287.91,434.53,283.34,434.43,273.44Z"/><path d="M432.63,318.28c.07-.7.15-1.4.22-2.1C432.78,316.85,432.7,317.55,432.63,318.28Z"/><path d="M434.7,282.63q-.79,15-.43,30c0-.18.18-.76.18-1.07-.05-12.48.08-24.88,1-37.33A195.39,195.39,0,0,1,437.88,252c.38-3.8.88-7.59,1.43-11.37-1.07,6.52-2,13.07-2.73,19.67Q435.22,271.4,434.7,282.63Z"/><path d="M442.37,223.24c-.13.68-.25,1.35-.37,2,.19-.93.36-1.86.56-2.78A5.78,5.78,0,0,0,442.37,223.24Z"/><path d="M439.31,240.58c.83-5.11,1.74-10.21,2.69-15.31Q440.42,232.88,439.31,240.58Z"/><path class="cls-67" d="M557.53,394.25c-3.44,1.29-5.16,1.93-7.91,3.06-6.91,2.84-10.84,4.47-15.71,7.28a48,48,0,0,0-7.53,5.75c-1.44,1.31-3.12,3-3.44,5.48-.13,1-.09,2.29.38,2.43.7.22,1.45-2.54,3.83-4.6a10.9,10.9,0,0,1,6.25-2.55c4.53-.22,6.05,3.69,11,5.87,6.73,3,14,.16,15.32-.38,7.66-3,15.16-11.22,13.66-18.38-.59-2.81-2.69-6.12-5.62-6.9C566.51,391,563.49,392,557.53,394.25Z"/><path class="cls-68" d="M560.85,358.89A19.14,19.14,0,0,0,558,366.8c-.68,6.1,2.3,8.44.77,10.73-2.33,3.46-10.25-.28-19.15,4.08a14.56,14.56,0,0,0-2.81,1.79c-.49.4-5.91,4.94-5.11,10,.37,2.3,1.7,2.53,2,5.1a9.71,9.71,0,0,1-1.28,5.88l46-21.45Z"/><path class="cls-61" d="M521.72,433.19a10,10,0,0,0,4.26,4.05c2,.93,4,.73,8,.29,4.76-.51,7.39-.68,10.46-2.29,2.07-1.09,3.24-2.21,6.13-3.07s3.18-.24,5.11-1c2.52-1,3.38-2.63,6.13-5.62,1.15-1.25,2.81-2.7,6.12-5.61a85.41,85.41,0,0,1,12.77-9.19,90.49,90.49,0,0,0-1-27.83l-12-26.81-8-1.63a32.84,32.84,0,0,0,3.17,16.18,107,107,0,0,1,2.81,12.77c.67,4,.67,5.12,0,5.61-1.86,1.37-6.27-4.1-13.79-6.63a27.66,27.66,0,0,0-12.77-1,31.81,31.81,0,0,1,4.6,2.56,28.79,28.79,0,0,1,9.45,10c1.81,3.27,2.4,6,3.31,10.21.49,2.23,1.65,7.59.77,7.91-1.14.41-3.57-8.35-10.47-15.57A38.55,38.55,0,0,0,531.93,387c.8,1.56,2,3.94,3.32,6.9,3.88,8.57,3,8.56,4.85,11.48,3.7,5.76,7.38,6.06,9.2,11.75.54,1.71,1.15,4.62.25,5.11-1.86,1-6.64-9.92-14.81-11.24-4.66-.75-9.11,1.84-12.57,4.72q-.81,3.29-1.61,6.57a14.41,14.41,0,0,0-.34,6.82A14.24,14.24,0,0,0,521.72,433.19Z"/><path class="cls-63" d="M534.81,406.89a13.49,13.49,0,0,0,.76,6.13c.79,2,1.89,3.28,4.09,5.74,2.47,2.76,3.7,4.14,5.49,4.72a9.07,9.07,0,0,0,6.64-.63,85.16,85.16,0,0,0-4.85-8.94c-1.28-2-2.57-3.91-3.83-5.62-.25-.24-3.37-3.29-6.64-2.3A4.91,4.91,0,0,0,534.81,406.89Z"/><path class="cls-63" d="M533.91,387.87c0,2.18,1.39,3.86,3.2,6,1.38,1.63,1.4,1.3,2.42,2.55a22.36,22.36,0,0,1,3.7,6.89c1.33,3.67,1,4.92,2.17,5.49,1.38.66,2.29-.61,5.11-.51,3.06.11,4.26,1.73,5,1.15,1.26-1-1.69-6.66-4-11a74.64,74.64,0,0,0-5.36-8.42A19.62,19.62,0,0,0,542,385.7c-2.32-1.73-3.55-1.8-4.09-1.79a4.24,4.24,0,0,0-3.19,1.4A4.06,4.06,0,0,0,533.91,387.87Z"/><path class="cls-63" d="M541.19,381.1c.45.71,2-.18,4,.26,2.42.55,4,2.93,5,5.1l7.91,8.43h0a20.69,20.69,0,0,0,5.87,1.66,9.81,9.81,0,0,0,6.13-1.92c-2.87-3.07-5-5.74-6.51-7.66-3.4-4.42-4-6-6.64-7.53-2.19-1.3-4.2-1.67-7.66-2.3s-4.64-.32-5.49.13C541.94,378.23,540.7,380.32,541.19,381.1Z"/><path class="cls-63" d="M570.43,361.31c-3.81,2.19-4.91,3.24-4.73,3.71.28.7,3.42-.22,4,.89.21.42-.09.89-1.15,2.68-2.09,3.54-2.16,3.77-2.17,4.09-.07,1.63,1.35,1.75,2.43,4.59.84,2.23.35,3.19,1.27,3.83s1.67.21,4.22-.25c1.91-.35,3.5-.54,4.59-.64Q574.64,370.76,570.43,361.31Z"/><path class="cls-63" d="M580.13,383.65c.19,1.68,1,9.32,1.27,11.37.9,8,1.33,11.76.26,12.12-.64.22-1.14-1-4.09-3.57s-4-2.63-4.21-3.83c-.35-1.92,2.09-2.51,3.19-6.13.73-2.36,0-3.08.77-5.49A11.39,11.39,0,0,1,580.13,383.65Z"/><path class="cls-69" d="M532.89,411.87a13.18,13.18,0,0,0-7,4.08,9.9,9.9,0,0,0-2.81,6.64c.05,1.84.77,3.73,1.28,3.7.73,0-.21-3.92,2.17-6.76,1.68-2,3.52-1.74,5.11-4.09A8,8,0,0,0,532.89,411.87Z"/><path class="cls-70" d="M538.77,405.74a11.7,11.7,0,0,1,4,2.94,31.32,31.32,0,0,1,2.43,3.31,54.78,54.78,0,0,1,3.45,4.86,21.24,21.24,0,0,1,1.53,3.44,7.12,7.12,0,0,1,.51,2.81,6.61,6.61,0,0,1-.38,1.79c-1.06,3.18-2.37,4.24-1.92,5,.2.32.94.38,2.43.51,1.74.14,2.61.22,2.93,0,1.66-1.11-.05-7-2.17-11.24a29.85,29.85,0,0,0-3.44-5.36A36.72,36.72,0,0,0,538.77,405.74Z"/><path class="cls-69" d="M556,409.7c2.49,3.67,2.58,5.77,2.17,7a5,5,0,0,0-.38,1.91,5.12,5.12,0,0,0,1.4,3.32c.35.38,1,1.05,1.28.9s0-1.47-.38-3.71a26,26,0,0,1-.39-5.36,16.66,16.66,0,0,1,.77-4.21q-2-7.53-2.94-7.41c-.27,0-.48.51-.64,1.41l-.76,2.94C556.09,407.57,556,408.63,556,409.7Z"/><path class="cls-69" d="M555.49,394.76c-.73.3-3.89,1.68-4,3.7,0,.89.54,1,1.79,3.83.55,1.24.68,1.83,1.15,1.92.87.16,1.87-1.7,1.91-1.79C557.83,399.66,556.2,396.11,555.49,394.76Z"/><path d="M549.35,432.86c-1.05.32-2.1.65-3.13,1C547.26,433.52,548.31,433.19,549.35,432.86Z"/><path d="M580.49,411.42a80,80,0,0,0-16.56,12.15c-3,2.9-5.24,6.18-9.32,7.6-1.75.6-3.5,1.14-5.26,1.69l1.83-.53c2.28-.63,4.65-1.16,6.61-2.55a18.37,18.37,0,0,0,3.06-2.85,75.34,75.34,0,0,1,19.55-15.37S580.55,411.39,580.49,411.42Z"/><path d="M535.72,437.54c-4.75.53-9.33-1-13.6-3,0,0,0,0,0,0,4.74,2.18,9.58,3.78,14.86,2.83a19.2,19.2,0,0,0,4.44-1.67q2.37-1,4.82-1.9a53.83,53.83,0,0,0-5.36,2.07A16.7,16.7,0,0,1,535.72,437.54Z"/><path class="cls-71" d="M559.66,354.46l4.08,5.45,5.11-1.53-2.72-5.28c-1.76-1.48-4-1.68-5.28-.68A3.43,3.43,0,0,0,559.66,354.46Z"/><path class="cls-71" d="M539.91,379a10.62,10.62,0,0,0,2.73-.51c1-.32,3.51-1.29,3.4-2-.13-.91-4.33-2.11-5.78-.17A3.37,3.37,0,0,0,539.91,379Z"/><path class="cls-71" d="M538.55,383.57c-.28-.74-2.61-1-4.25.17s-2.16,3.59-1.53,4.08C533.83,388.66,539,384.84,538.55,383.57Z"/><path d="M331.25,495.83a30.46,30.46,0,0,1-3.41,5.91,23.21,23.21,0,0,1-4.94,4.6A21.51,21.51,0,0,1,308.76,510a23.12,23.12,0,0,1-14.4-7.23c.35.37,0,1.42.37,1.8a23.53,23.53,0,0,0,14.72,7.16,21.75,21.75,0,0,0,12.9-2.93,22.48,22.48,0,0,0,5.35-4.3,23.38,23.38,0,0,0,4.44-7.72C332.21,496.58,331.19,496,331.25,495.83Z"/><path class="cls-72" d="M609.33,326.89l-1.12-2.53L605.72,323c-.19-1.28-.38-2.56-.58-3.84l7.73-1.39.64,3.44-1.66,1.92.26,2,.63,1Z"/><path class="cls-72" d="M630.17,314.12l-6.51-.13-5.49,2.43.64,3.45,4,1.27,1.14,2.68,3.83-.89v-3.32l3.2-1.15Z"/><path class="cls-72" d="M638.85,311.14c.13,0-5.74,2.17-5.74,2.17l1.71,4.07,2.63-.24c.21,1.09.42,2.17.64,3.26l3.55-.69-.75-3.14,1.92-3.26Z"/><path class="cls-72" d="M650.34,309.68c-.32,1-.64,2-1,3a5.59,5.59,0,0,1,3.58,4.72l2.27-.53-.48-4h0l.49-3.86Z"/><path class="cls-72" d="M669.23,306.48h-4.85s-6.25,3.07-5.74,2.56a.12.12,0,0,1,.09,0,21.79,21.79,0,0,1,1,3.16h3.69c.12.93.24,1.85.37,2.77l3.29-.78.74-3.2,2.3-.57v-3.9Z"/><path class="cls-72" d="M680.85,302.46H678l-1.85,1.85,1,3.9,2.42.25c.09,1,.17,2,.26,3l2.43-.32c-.17-1.27-.35-2.55-.52-3.83Z"/><path class="cls-73" d="M275.23,102.72a10.5,10.5,0,0,0,1.2,5.27c1.73,3.2,4.37,3.58,4.93,6.47.28,1.46-.34,1.6-.17,3.92a15.1,15.1,0,0,0,1.36,4.93c1.09,2.69,1.3,4.87,1.71,9a33.77,33.77,0,0,1-1.77,13.88,9.41,9.41,0,0,0-5.38,2.8c-3.5,3.8-3.33,11,1,17.53,1.66,2.71,4.1,6.52,7.32,10.89,7.71,10.48,14.88,17.42,22.81,25s11.41,10.18,22.46,21.11c1.87,1.84,3.4,3.38,4.43,4.42a23.9,23.9,0,0,0,5.11-.17,26.71,26.71,0,0,0,14.46-7.14c2.6-2.39,4.4-4,5.11-7a12,12,0,0,0-1.19-8.17c2.85-.13,5.17-.08,6.81,0,2.89.13,4.54.37,5.44-.68.77-.9.23-1.82,1.2-2.9.72-.81,1.51-.83,2.89-1.36a13.41,13.41,0,0,0,3.91-2.38l4.09-6.13a11.86,11.86,0,0,1,1.53-2c2.28-2.45,4.09-2.36,4.89-4.13s-.6-2.93.22-4c1.19-1.5,4.37,1,8.51-.42.62-.21,4-1.24,4.76-3.75.25-.84,0-1.26-.93-5.1-.19-.74-.82-3.26-1.17-4.94a41.94,41.94,0,0,1-.79-6.47l2.55-5.36q1-3.19,2.05-6.38l-1.35-5.08c2.06-.22,5.26-.93,7.3-3.43,1-1.26,1.2-2.28,2.39-7.66,1.84-8.35,1.94-8.07,2-9.54a27,27,0,0,0-.68-10c-.23-.77-1.91-6.34-6-9.87-5.35-4.67-12.7-3.92-21.11-3.23-27,2.19-8.42-.92-31.66,1.87-40,4.79-43.21,7.79-51.4,4.08-3.07-1.38-9.36-4.85-18.38-5.1A38.51,38.51,0,0,0,275.23,102.72Z"/><path class="cls-74" d="M700.11,322.15c-1.07,3.85-2.53,7.71-5.59,10.46-2.77,2.5-6.07,3.19-9.67,3-1.22-.05-2.43-.15-3.65-.13a17.72,17.72,0,0,0-7.6,2.06c-5.08,2.54-9.06,6.74-12.77,10.95-3.35,3.79-6.52,7.77-10.2,11.25-3.2,3-7.49,5.84-12.11,5.22-2.52-.34-4.8-1.69-7.3-2.18a41.12,41.12,0,0,0-16.09.44c.19,0,.75,1.58,1,1.53,5.29-1.09,10.74-1.6,16.08-.4,2.43.55,4.74,2,7.22,2.25,4.26.42,8-1.7,11.08-4.39,4.34-3.73,7.58-8.42,11.25-12.78,3.3-3.92,6.88-7.69,11.35-10.28,4.08-2.38,8.28-2.38,12.82-2.09,3.58.23,7-.46,9.71-3.06,3.12-3,4.22-7.2,5.15-11.33C700.82,322.55,700.09,322.24,700.11,322.15Z"/><path class="cls-75" d="M284.32,133.07a88.77,88.77,0,0,0,2.32,9.56A89.92,89.92,0,0,0,291,154.12a74.43,74.43,0,0,1-4.09,7.15c-2.85,4.41-4,5.38-5.36,5.62a5.47,5.47,0,0,1-3.79-1,15.07,15.07,0,0,1-2.71-5.45,14.48,14.48,0,0,1-.08-7.17,9.46,9.46,0,0,1,1.84-3.91,8.69,8.69,0,0,1,2.46-2l2.79,2.17Z"/><path class="cls-76" d="M313.7,175.82c-.52.27.88,3.59,0,4.09s-2.4-2.5-5.1-2.55a4.34,4.34,0,0,0-4.09,2.55c-.65,2.13,2.27,3.39,1.79,5.87-.39,2-2.7,3.31-4.6,4.34a14.81,14.81,0,0,1-4.21,1.53c4.94,5.43,9.19,9.6,12.13,12.39,5.65,5.35,8.55,7.57,14.55,13.27,4.75,4.52,8.43,8.36,10.75,10.84l8-.75a28.76,28.76,0,0,0,7.4-3.06,22.7,22.7,0,0,0,4.47-3.32c3.69-3.61,5.46-8.28,4.85-8.68s-2.08,2.63-5.87,3.57a6.64,6.64,0,0,1-4.85-.26c-1.83-1-2.44-2.88-3.58-6.38-.62-1.92-.92-2.88-.51-3.32,1-1.07,4.4,3.07,8.43,2.3,2.52-.48,2.43-2.31,5.49-2.94,1.88-.38,2.3.24,6,.26,1.72,0,5.17-.1,5.23-.64s-2.15-1.25-4.34-1.53c-4.38-.55-6,1.35-9.19.64-2.73-.62-2.13-2.16-5.11-3.45-5.28-2.29-9.08,1.72-14.93-.77a26.22,26.22,0,0,1-2.89-1.52,30.62,30.62,0,0,1-5-4.09C319.34,185.33,314.61,175.36,313.7,175.82Z"/><path class="cls-77" d="M310,141a4.19,4.19,0,0,0-2.73-.34,6.92,6.92,0,0,0-4.25,2c-.65.71-.61,1-1.19,1.36a3.18,3.18,0,0,1-3.24-.17c-1.74-1.32-.43-4.36-2-5.28a2.22,2.22,0,0,0-2.21.17c-1.49,1-1.12,4.11-.17,6,.29.58.94,1.41,5.44,3.75s5.52,2.35,6.13,3.74c.79,1.79-.3,3.31.85,4.43a2.65,2.65,0,0,0,2.73.51c1.62-.73,2-3.67,1.53-5.62-.29-1.33-.82-1.64-.68-2.72.18-1.44,1.22-1.87,1-2.9s-1.31-1.75-1.87-1.53c-.83.33.05,2.63-1,3.4s-3.66,0-4.09-1.7a3.13,3.13,0,0,1,1.87-3.23c2.32-1.08,5.1,1.38,5.62.68C312,143.12,311.16,141.68,310,141Z"/><path class="cls-77" d="M286.3,126.21A71.63,71.63,0,0,0,288.68,140c1.51,5.48,2.43,8.64,5.28,11.75a18.64,18.64,0,0,0,7.49,5.11c5.27,1.87,8.49.06,10,2.21,1.81,2.51-1.11,7,.51,8a2,2,0,0,0,2-.34c1.69-1.3.77-4.93.34-6.64a15.56,15.56,0,0,0-1.36-3.57,9,9,0,0,1-7.18,1.25,8.77,8.77,0,0,1-5.07-3.81A22.77,22.77,0,0,1,289,138.29Q287.66,132.25,286.3,126.21Z"/><path class="cls-78" d="M294,154.29c2.22,4.12,4,7.36,7.66,9.36.44.25,6.29,3.34,9.19.86,1.37-1.18,2-3.57,1.19-4.77-.49-.69-1.35-.8-3.23-1-3.93-.46-5.61-.59-6.3-.68-5.75-.76-9-7.47-9.7-7C292.38,151.34,293.58,153.59,294,154.29Z"/><path class="cls-78" d="M300.09,123.48c.26-.65-1.75-2.29-3.75-3.06a9.88,9.88,0,0,0-8,.68c-4,2.36-5.13,7.32-4.6,7.66s2-3.66,6.13-5.28C294.79,121.56,299.68,124.46,300.09,123.48Z"/><path class="cls-79" d="M271.49,94.21a26.57,26.57,0,0,0,2.38,11.23,22.23,22.23,0,0,0,1.32,2.42,47.46,47.46,0,0,0,3.29,4.42,22.68,22.68,0,0,1,3.56,6.27c1.47,4.24,0,6.11,1.53,11.4a23.32,23.32,0,0,0,1.37,3.58,10.43,10.43,0,0,1,.51-8.51,9.67,9.67,0,0,1,9.36-4.94c.77.1,4.14.53,5.62,3.4a6.63,6.63,0,0,1,.34,4.77,43.16,43.16,0,0,1,8.17,3.23c4.1,2.14,7.07,3.68,9,7a14.49,14.49,0,0,1,1.7,9.19l5.11,6.81,4.25-2.89a76.25,76.25,0,0,1,1.7-11.92c.39-1.71.83-3.35,1.54-3.4,1.05-.07,1.08,3.45,3.78,6.51,2.3,2.6,4.12,2.13,7.41,4.72a19.27,19.27,0,0,1,5.1,6.26l9.71-2.81,3.19,2.3c.59-1.36,1.19-2.72,1.78-4.09l2.43.26.81,6.42c5-3.64,6.62-4.07,7.1-3.61.74.7-1.31,3.38-.38,4.34s4.21-.46,5.75-1.28c2.15-1.15,3-2.27,3.95-1.91s.81,1.59,1.54,2.55c.89,1.18,3.08,2,8.55.77a75.81,75.81,0,0,0,6.64-7.66c1.94-2.6,2.32-3.47,2.55-4.22.94-3-.28-4.3,1.06-6.51.79-1.29,1.59-1.49,2.51-3.32a9.94,9.94,0,0,0,.9-2.63l6.64-.35a23.07,23.07,0,0,0,7.15-10.72,27.23,27.23,0,0,0-1.71-17C410.83,85.82,284.52,93.39,271.49,94.21Z"/><path class="cls-80" d="M320,5a53.35,53.35,0,0,0-15,6.63c-6.94,4.44-10.9,9.22-15,14.13-5.5,6.64-11.49,14-14,25.19a46.12,46.12,0,0,0-1,7.49,49.26,49.26,0,0,0-4.42,12.43,50.47,50.47,0,0,0-.17,19.74c1.37,7.21,2.3,12.14,6.3,16.51,2.59,2.84,5.8,4.71,8.68,9.88a28.54,28.54,0,0,1,2.21,5.1,9.56,9.56,0,0,1,5.62-2.89c4-.43,7.15,2.42,9.53,4.59,3.72,3.41,3.64,7.76,5.45,7.66a3.62,3.62,0,0,0,2.72-2.55c0-.14,0-.25.06-.34l-4-4.94c.74-1.75,1.66-2,1.88-2,1.55-.33,3.82,1.7,4.93,5.45,1.41,1.09,2.74,1.92,3.24,1.53.69-.55-1.11-2.9-.32-4,1.1-1.56,6.9-.27,10.87,2.82A17.68,17.68,0,0,1,333.79,138l13.61,12.94c1.05-1.35,2.52-3.28,4.26-5.62,3.91-5.28,5.88-8,6.3-9.53,1.5-5.63-2.42-8.41-.34-11.75s7.95-4,9.19-2.38c.95,1.28-1.37,3.35-3.24,8.85s-2.41,11.63-1.19,12.09c.57.21,2.06-.61,6.81-9.36,2.43-1.48,5.06-2.8,5.79-2.05,1.11,1.15-2.94,6.38-2.21,7,1,.79,8.7-7.5,9.53-6.81,1,.84-5.18,11-4.77,11.24s3.84-6.06,7.15-5.62c.46.06.89.25,1.36,0,1.49-.78.37-4.48,1.36-4.77s2.3,1.29,2.9,2.9c.88,2.35-.08,4.67-1.36,7.66a46.17,46.17,0,0,1-4.09,7.15c-3,4.5-4.21,5.61-3.91,5.95.49.58,5.37-2.34,9-6.63.53-.63,1.61-2.4,3.78-5.92A66.91,66.91,0,0,0,398,136a30.25,30.25,0,0,0,2.21-7.74,41.77,41.77,0,0,1-1,13.38c-2.47,10.18-8.23,16.45-7.86,16.71s6-5.93,10.59-15.2A69.16,69.16,0,0,0,406,132.93c.48-.5,1.2-1.24,2-2.17a65.24,65.24,0,0,0,8.3-10.6c3.12-5.33,3.6-9.53,3.92-9.44s.16,5.49-2.52,10.85c-3.75,7.54-9.24,10.21-8.8,10.85.74,1.1,18.12-4.84,20.68-16.43,1.09-4.93-.78-9.48-.51-9.53s3.17,6.09,1.7,12.6c-1.76,7.77-8.71,11.76-8.21,12.34s6.09-2.06,9.19-7.53c2.42-4.28,2.44-8.87,2.93-8.81.32,0,.44,1.93.26,3.7a24,24,0,0,1-1.66,5.87c.2.11,2.7-3.09,4.85-7.78,2.81-6.12,3.44-11.43,4-16a77.44,77.44,0,0,0,.13-16.09l-5.88-12.12a136.72,136.72,0,0,0-8.55-16.6c-4.76-7.87-4.36-5.4-11-15.66-2.41-3.73-3.69-6-6.64-8-3.78-2.61-6.53-2.28-10.21-3.4-8.23-2.51-7.72-8.18-17.53-15.66a49.59,49.59,0,0,0-19.75-9c-3-.61-3.57-.4-17.61-.35C326.8,4.07,325,3.73,320,5Z"/><path class="cls-81" d="M327.66,196.68c-2.58-3.76-4.58-4.49-6-4.43-1.94.09-2.74,1.75-5.27,1.53a5,5,0,0,1-3.58-1.53c-.49-.65-.56-1.3-1.19-1.53a2,2,0,0,0-1.87.51c-1.37,1.24-.57,3.89-.51,4.08.59,1.9,1.64,1.82,2.55,3.58,1.48,2.87-.28,5.1,1,6.13,1,.78,2.79.08,5.62-1a18.56,18.56,0,0,0,9.19-7.31Z"/><path class="cls-82" d="M391.32,157.19c-4.22,4-4.71,5.21-8.68,11-4.52,6.57-8,8.56-7.15,10.47.19.41.64.9,6.13,1.79,4.58.74,6.88,1.11,9.7,1,4.43-.14,8.43-.22,9.7-2.55.33-.6.53-1.46-1-6.21-2-6.27-3.44-8-4.17-11.75a22.82,22.82,0,0,1-.17-7.4A45.2,45.2,0,0,0,391.32,157.19Z"/><path class="cls-83" d="M384.17,165.87a33.9,33.9,0,0,0-6.38,8.93c-1,2-1.34,3.3-.77,4.34.67,1.24,2.51,1.51,4.34,1.79a14.79,14.79,0,0,0,4,.08c-3.22.36-5.75-2-5.77-4.33a4.62,4.62,0,0,1,4.2-4.3c2.2,0,3.32,2.5,4.59,2,1-.4,1.44-2.31.77-3.32-.78-1.18-3.06-.9-3.64-.83-1.23.15-1.68.57-2,.32S382.92,169.17,384.17,165.87Z"/><path class="cls-84" d="M384.55,164.46c-.72,3.3-2.87,4.83-5.47,8.33a36.4,36.4,0,0,0-3.59,6l1.69,1.86,4.82.82a22.64,22.64,0,0,1-16.72,5.11l-2.81-1,2-4.22-1-4.21-1-6.89c.76-.9,1.53-1.79,2.3-2.68-3.2-.79-5.12-2.29-5-3.45,0-.16.15-1,1.91-1.66l7.53,1.53,13.28-.51,2.17-2.55A10.1,10.1,0,0,1,384.55,164.46Z"/><path class="cls-85" d="M388.44,187.09a47.87,47.87,0,0,0-5.43.08c-2.94.21-3.57,1.29-8.29,2.53-2.27.59-2.54.51-3.38,1a7.73,7.73,0,0,0-3.62,5.54c-.13,1.05-.46,3.51,1.15,4.85s4.43.78,6-.25a6.47,6.47,0,0,0,2.68-4.22c-3.32-.1-4.06-.38-4.08-.64s1-.56,3.06-1.44c1.32-.57,2.21-1,4-2a30,30,0,0,0,3.64-2.08,22.49,22.49,0,0,0,2-1.66Z"/><path class="cls-86" d="M384.3,180.68c2.86.36,5.1.68,6.51.89,3,.45,4.3.68,6,.28a10.08,10.08,0,0,0,3.81-1.81,4.65,4.65,0,0,0,.76-2,5.35,5.35,0,0,0-.76-3.19c-.86-1.55-2.2-5.37-4.44-14.14a56.95,56.95,0,0,0,2.44,15l-3.07,2.56Z"/><path class="cls-87" d="M389.07,186.47a24.63,24.63,0,0,0-5.16.33,41.13,41.13,0,0,0-8.07,2.59c-5.06,2-6.9,3-7.36,2.44s.25-1.74,1.14-2.47c1.26-1.05,2.79-.72,4.47-.77s4-.84,8.42-2.43a69.3,69.3,0,0,0,7-2.93C389.38,184.31,389.23,185.39,389.07,186.47Z"/><path class="cls-88" d="M400.64,180a4.21,4.21,0,0,0,2.25-2.26c.48-1.41-.46-2.11-1.36-5.1a52.87,52.87,0,0,1-1.3-8.47c-.06-.55-.11-1.08-.11-1.08-.08-.95-.12-1.71-.12-1.86,0-1.42,1.08-2.89,1.53-3.57.65-1,1.05-2.75,1.85-6.32A55.35,55.35,0,0,0,404.6,143c-4.36,4.54-7.19,8.4-7.82,10.2-.25.72-.41,1.42-.41,1.42a15.61,15.61,0,0,0-.32,3.71,22.5,22.5,0,0,0,.87,5.81c.29,1.21.71,2.48,1.55,5,.76,2.3,1.14,3.45,1.4,4,.89,1.92,1.45,2.53,1.53,3.82A5.54,5.54,0,0,1,400.64,180Z"/><path class="cls-89" d="M287.91,128.72c-.26,0-.22,3.67.52,7.79a33.87,33.87,0,0,0,3.95,11.61c1.7,3,3.23,5.56,6.39,7,2,.91,4.21,1.5,4.46,1s-2-1.9-5-4.85a50.23,50.23,0,0,1-4.6-5.49C288.2,138.34,288.35,128.66,287.91,128.72Z"/><path class="cls-89" d="M295.7,139.82c-.58.39-.06,2.24.39,3.32a11.58,11.58,0,0,0,3.82,4.73c2.31,1.78,3.17,1.47,4.86,3.32a7,7,0,0,1,1.78,2.8c.62,2.06-.35,3.14.39,4,1,1.12,3.12-.47,4.72.77,1,.74,1.18,2.09,1.4,3.44.34,2.06-.13,3.25.13,3.32s1.62-2.15,1.79-4.72c.07-1.13.13-2.23-.64-2.94s-1.73.06-2.43-.51c-1.35-1.1,1.12-4.75-.51-6.76-.17-.21-.09,0-1.78-1.15A18.48,18.48,0,0,1,306.3,147c-1.18-1.34-.87-2.05-1.92-2.68s-1.36,0-2.68-.51-1.42-1.26-3.57-2.81C297,140.18,296.13,139.54,295.7,139.82Z"/><path class="cls-90" d="M294.68,151.7c.45-.28,1.34.93,3.7,2.68a31.49,31.49,0,0,0,5.49,3.19c2.72,1.3,4.08,2,5.49,1.79,1.14-.14,1.9-.6,2.55-.13s.61,1.15.77,2.68c.17,1.68.26,2.52,0,2.94-.86,1.38-3.8.93-6.64.51-2.5-.38-4-.62-5.49-1.79a13.86,13.86,0,0,1-2.55-3.19,22.66,22.66,0,0,1-2.43-4.34C295.34,155.46,294,152.12,294.68,151.7Z"/><path class="cls-89" d="M307.06,142.63c.15-1.32,1.76-2.17,3.07-2,1,.1,2.22.79,2.3,1.79s-.84,1.56-1.15,1.78c-.71.52-2.21,1.2-3.32.39A2.17,2.17,0,0,1,307.06,142.63Z"/><path class="cls-91" d="M392.47,153.36a56.06,56.06,0,0,1-9.32,2.29,63.57,63.57,0,0,1-8.09.69c-2.62.1-6.06.15-10.13-.06l.86,1.42,9.7.93c1,.1,3,.3,5.62.34,1,0,1.72,0,1.95,0a25.39,25.39,0,0,0,4.6-.34c2.1-.4,3.35-.64,4.17-1.7A4.61,4.61,0,0,0,392.47,153.36Z"/><path class="cls-92" d="M371.48,203.13a16.44,16.44,0,0,0-6.58.2c-2.43.59-4.33,1.65-6.47.85-.49-.19-.22-.19-1.66-1a28.89,28.89,0,0,0-4.21-1.95,15.79,15.79,0,0,0-3.28-1,17.38,17.38,0,0,0-5.13,0c-.51.07-.52.09-2,.31-1.22.17-2.22.31-2.89.39l.51,1.58a26,26,0,0,1,6.3.51c3.09.64,2.75,1.18,6,1.79,1.79.33,3.36.44,5.11,1.61.84.57.74.72,1.27.94,2,.8,3.18-1.4,6.39-1.83,2.64-.36,3.92.86,5.37-.19A3.69,3.69,0,0,0,371.48,203.13Z"/><path class="cls-92" d="M318.49,180.68c1.41,1.48,1.72,1.42,2.94,2.74,2.65,2.88,1.95,4,4.14,6.19,1.71,1.7,2.34,1.22,5.05,3.58,1.08.94,3.38,3.11,3.06,3.57s-3.61-.73-6.36-2.81c-2.07-1.56-5.53-4.95-7.11-6a11.19,11.19,0,0,0-1-.62c-.72-.37-1.19-.47-1.7-.8a5.49,5.49,0,0,1-.6-.49c-.7-.68-1.55-4.65-1.91-10.15A23.62,23.62,0,0,0,318.49,180.68Z"/><path class="cls-92" d="M284.47,177.36c3,3.24,7.59,8.17,13.15,14.29s5.9,6.61,8.17,8.94c5.88,6,9,8.36,15.95,14.68,3.15,2.87,7.78,7.19,13.28,12.77,1.57-.08,2.88-.18,3.83-.26,1.44-.12,2.19-.19,3.22-.35a26,26,0,0,0,3-.67c2.39-.7,5-2,4.85-2.3s-2.85.56-8,1.15c-3,.35-4.55.52-5.74.26-2.76-.61-3.3-2.75-7.79-8.17a48.09,48.09,0,0,0-6.51-6.9,30.32,30.32,0,0,0-8.3-4.85L287.79,179Z"/><path class="cls-93" d="M314.21,160.59c-.94,4.63-2.09,7.22-1.36,10.89a29.5,29.5,0,0,0,1.64,5.08,27,27,0,0,0,1.77,3.43c.56.95,5.18,8.28,7.83,11.24,4.1,4.59,13.21,9.56,25.23,12.42a7.67,7.67,0,0,0-.77-3.31c-1.94-3.94-6.58-4-10.59-6.39-2.31-1.36-4.41-5-8.6-12.42-3.79-6.68-6.25-11.07-8.68-17.54-3.47-9.23-4.09-15.72-5.05-15.61C314.84,148.48,315.79,152.86,314.21,160.59Z"/><path d="M398.55,152.68l1.45,8.59c0,.8.11,1.91.28,3.31l0,.19a48.77,48.77,0,0,0,1.66,7.91c.69,1.85,1.28,2.75,1.05,4.25a5.24,5.24,0,0,1-1.11,2.49c-.24.3-1.37,1.64-4.37,2.28-2.2.46-3.46.13-7.56-.25-1.88-.18-3.2,0-5.3-.38s-2.92-.77-3.56-1.36a5.13,5.13,0,0,1-1.52-3,7.35,7.35,0,0,0,2.58,3.13c1.49,1,2.72.89,6.12,1.09,6.08.35,6.35.9,8.77.41,1.42-.28,4.43-.88,5.24-3a5.25,5.25,0,0,0,.22-2.17,8.25,8.25,0,0,0-1-3.5c-.47-2-.93-4.05-1.4-6.08l-.79-7C399.08,157.3,398.81,155,398.55,152.68Z"/><path d="M329.92,484.79c0-.19-.55-.31-.57-.45a9.47,9.47,0,0,1-.08,3.93,10.7,10.7,0,0,1-1.94,3.57c-2.54,3.14-6.54,4.44-10.38,5.09a56.45,56.45,0,0,1-13.35.9,17.79,17.79,0,0,1-5.42-1.23,14.48,14.48,0,0,1-5.2-3.69c.34.35,0,1.45.33,1.82a15.72,15.72,0,0,0,4.1,3.19,17.4,17.4,0,0,0,5.14,1.52c4.94.73,10.42-.05,15.28-.88,3.62-.63,7.22-1.8,9.81-4.5S330.49,488.22,329.92,484.79Z"/><path class="cls-94" d="M384.43,155.91c-1.48.79-2.51,2-2.81,1.79s.12-.57-.09-.85c-.36-.51-1.88,0-2.64.25-3.38,1-6.13.18-6.15.41s1.56.56,8,1.46a23.57,23.57,0,0,0,5.36,0c2.72-.3,4.65-.55,5.7-2a4.4,4.4,0,0,0,.7-2.81c-.75.21-1.87.5-3.25.77C386.28,155.46,385.72,155.22,384.43,155.91Z"/><path class="cls-95" d="M337.47,6.55A36.67,36.67,0,0,0,318.06,6c-1.3.33-6.75,1.8-14.29,7.4a69.92,69.92,0,0,0-20.17,24c3.5-2.11,6.08-3.47,6.38-3.06.63.85-9.26,9-8.68,9.7s9.53-5.44,10-4.85c.3.42-4.39,3.63-9.2,9.7-2.55,3.22-5.34,7.5-4.85,7.92C278.33,57.8,296,38.2,296.87,39S283.82,56.65,284.36,57.1s13.95-15.42,15.07-14.55c.5.39-1.86,3.86-5.88,11.74-3.08,6.07-6.55,12.88-5.61,13.53.76.53,6.74-9.1,8.68-8.17,1,.48.4,3.37,1.27,3.58s1.76-2.93,3.58-3.07c1.26-.09,1.51,1.39,3.32,2.3,2.8,1.42,7,.25,9.19-2,1.43-1.49,1.76-3.15,2-3.06.66.2-2.14,9.06-.76,9.7,1.54.72,7.46-9.47,8.42-8.94.75.42-2.44,6.85-1.52,7.41,1.21.74,8.17-9.32,9.18-8.68.63.39-1.78,4.51-3.83,12-1.34,4.89-1.92,9-1.28,9.19s1.6-2.73,2.56-2.56c1.61.29.48,8.92,1.78,9.2,1.67.35,6.7-13.06,4.6-14.3-.92-.55-2.91,1.46-3.32,1s2.58-3.07,4.09-7.15-.16-5.6,1-9.19c1.75-5.33,7.91-9.44,10.47-8.17s-.09,8,4.08,11.49c2.3,1.93,4.92,1.4,5.11,2.55.26,1.68-5.43,2.39-10.47,6.89-3.74,3.34-5.3,7.15-7.92,13.54-1.55,3.79-4.15,10.13-2.8,11s7.12-3.13,8.68-8.69c.76-2.71.28-5.05,1.78-5.87,1.29-.7,2.53.54,4.6,1,3.38.8,5.69-1.2,14.55-6.12,9.33-5.19,10.06-4.8,10.22-4.6.32.42-.66,1.71-1.89,3.28-3.17,4.08-6.18,6.21-6,6.42s9.24-5.94,9.7-5.36c.33.41-3.4,4.45-8.42,7.92-7,4.82-12.88,6-12.77,6.38s11.46-1.78,22.47-7.15a23.16,23.16,0,0,1,2.81-1.28c.15.29-20.44,11.76-20.17,12.26.16.31,8.1-4,19.91-6.9,5-1.23,5.32-.87,5.36-.76.42,1-10.75,6.49-20.93,11.23-.66,2.78-.24,3.73.25,4.09,1.94,1.39,6.53-5.14,14.3-5.36,1.47,0,1.56.18,5.11.25,5.43.11,7.83-.37,7.91,0,.15.66-6.8,3.78-15.57,5.36-7.1,1.28-11,.76-15.58,4.09-2.5,1.82-4.49,4.26-4.08,4.85.55.79,5.05-2.34,12.76-4.6,5.71-1.66,11.35-2.32,11.49-1.78.21.79-11.59,4.89-16.85,6.63-6.23,2.07-9.28,2.8-9.19,3.58.12,1,5.44,1.38,9.7,1a36.81,36.81,0,0,0,7.66-1.53c3.74-1.14,5.58-2.24,14.3-6.64,5-2.52,4.92-2.43,6.13-3.06,12.11-6.4,19.63-15.84,19.91-15.58.5.46-22.85,27.22-22.46,27.58.19.18,6.13-7,16.34-13,2.11-1.26,8.78-5.22,9.7-4.08,1.35,1.67-10.24,13.61-18.9,21.45-8.23,7.45-13.86,11.24-13.53,11.74S390.39,127,413.55,113a7.69,7.69,0,0,1,0-4.86c1.09-3.09,4.4-5.52,6.39-4.85,2.66.91,4.2,7.89,2,13-1.18,2.79-3.52,5.18-5.36,10.72-.27.81-.65,2-.26,2.3.67.44,3.26-2.18,5.87-4.85,3-3.07,4.18-4.66,4.86-4.35.92.44-.15,4,.25,4.09s3.23-5,4.34-12c.73-4.57,0-5.36.77-10.21C433.21,97,435,91,436,91.06c.78.08,1.47,3.87,1,20.62a45,45,0,0,0,4.13-15c.38-4.16.75-8.62-1.28-13.54-1.47-3.56-2.36-2.58-4.34-6.89s-3.15-9.33-5.87-14.3c-1-1.8-2.11-3.41-4.34-6.64-1.74-2.51-2.37-3.25-3.32-4.59-5.57-7.89-3.81-10.61-7.92-14-1.57-1.32-3.73-2.33-8-4.34a48.45,48.45,0,0,0-4.59-1.92c-2.62-.94-4.34-1.31-5.11-1.53-2.32-.67-5.39-2.75-8.55-9.07a58.13,58.13,0,0,0-6.13-6.38C371.21,3.81,340.14,6.31,337.47,6.55Z"/><path class="cls-96" d="M257.53,165c-2.55-.32-4.42,0-4.59.64a2.31,2.31,0,0,0,.89,1.79l.16.12a2.44,2.44,0,0,0,3.41-.12A2.29,2.29,0,0,0,257.53,165Z"/><path class="cls-96" d="M245.4,167.91c0-.48-.28-1-3.57-3.32-2.31-1.61-2.85-1.8-3.32-1.91-1.79-.44-3.66,0-3.7.38s1.69.42,4.08,1.91c1.38.86,2.85,1.78,3.07,3.19a2.43,2.43,0,0,0,.38,1.28,1.77,1.77,0,0,0,1.53.77A2.2,2.2,0,0,0,245.4,167.91Z"/><path class="cls-96" d="M270.17,153.23c-.21-.22-3.38,2.13-6.13,5-1.05,1.08-1.38,1.56-3.19,3.44-1,1-2,2-3.32,3.32-1.91,1.85-4.57,4.43-7.79,7.28-5.65,5-9.15,7.41-9.06,7.53s6.74-3.87,13.79-10.08c3.46-3.06,5.93-5.67,10.47-10.47C267.52,156.5,270.39,153.46,270.17,153.23Z"/><path class="cls-96" d="M243.87,196.89c-.41-.09-1.91,3.94-2.42,8.3a25.18,25.18,0,0,0,0,5.87c.17,1.51.5,4.43,1.15,4.47s2.23-4,2-8.17c-.11-2.41-.7-3.18-.77-6.64C243.82,198.21,244.1,196.94,243.87,196.89Z"/><path class="cls-96" d="M242,219.1c-.6,1.74-.05,3.15.51,5.49.8,3.4.71,5,.89,5,.49,0,.67-11.74-.51-11.87C242.46,217.65,242,218.9,242,219.1Z"/><path class="cls-96" d="M234.55,180.8c0-.56-2.64-.93-4.21-1a33.09,33.09,0,0,1-3.32,0c-2.3-.34-3.52-1.51-3.7-1.27s1,1.76,2.68,2.68a8.21,8.21,0,0,0,4.21.89C232.27,182,234.58,181.34,234.55,180.8Z"/><path class="cls-96" d="M223.57,182.85c0-.34-3.25-.5-5-.51-3.88-.05-3.75.55-6.64.38-2.65-.16-3.93-.73-5.62.13-.82.41-1.81,1.2-1.66,1.66.22.65,2.65.33,6.64-.13C220.74,183.29,223.59,183.16,223.57,182.85Z"/><path class="cls-97" d="M229.19,184.51c-.05-.16-.65-.1-1-.07-4.81.42-3.19-.23-7.4.32-6.07.79-5.22,1.58-8.17,1.53-3.24,0-5-1-6.9.26-.73.5-1.62,1.46-1.4,2.17.34,1.14,3.16.42,4.47,2.17.93,1.25.28,2.69.89,2.93.88.36,1.9-2.75,4.85-4.59,2.44-1.52,3.39-.43,8.43-1.92C226.12,186.37,229.3,184.88,229.19,184.51Z"/><text class="cls-98" transform="matrix(0.93, -0.8, 0.65, 0.76, 642.75, 361.33)">FENDER</text></svg>